<?xml version="1.0" encoding="UTF-8" standalone="no"?>
<!DOCTYPE svg PUBLIC "-//W3C//DTD SVG 1.1//EN"
 "http://www.w3.org/Graphics/SVG/1.1/DTD/svg11.dtd">
<!-- Generated by graphviz version 8.1.0 (20230707.0739)
 -->
<!-- Pages: 1 -->
<svg width="2658pt" height="713pt"
 viewBox="0.00 0.00 2658.00 712.50" xmlns="http://www.w3.org/2000/svg" xmlns:xlink="http://www.w3.org/1999/xlink">
<g id="graph0" class="graph" transform="scale(1 1) rotate(0) translate(4 708.5)">
<polygon fill="white" stroke="none" points="-4,4 -4,-708.5 2654,-708.5 2654,4 -4,4"/>
<g id="clust1" class="cluster">
<title>cluster_N0.0</title>
<polygon fill="none" stroke="black" points="8,-152 8,-570.5 93,-570.5 93,-152 8,-152"/>
<text text-anchor="middle" x="50.5" y="-553.2" font-family="Times,serif" font-size="14.00">Step 1: N0.0</text>
</g>
<g id="clust2" class="cluster">
<title>cluster_N0.0.7</title>
<polygon fill="none" stroke="black" points="101,-80 101,-570.5 391,-570.5 391,-80 101,-80"/>
<text text-anchor="middle" x="246" y="-553.2" font-family="Times,serif" font-size="14.00">Step 2: N0.0.7</text>
</g>
<g id="clust3" class="cluster">
<title>cluster_N0.0.7.10</title>
<polygon fill="none" stroke="black" points="399,-224 399,-570.5 511,-570.5 511,-224 399,-224"/>
<text text-anchor="middle" x="455" y="-553.2" font-family="Times,serif" font-size="14.00">Step 3: N0.0.7.10</text>
</g>
<g id="clust4" class="cluster">
<title>cluster_N0.0.7.10.7</title>
<polygon fill="none" stroke="black" points="519,-296 519,-655.25 771,-655.25 771,-296 519,-296"/>
<text text-anchor="middle" x="645" y="-637.95" font-family="Times,serif" font-size="14.00">Step 4: N0.0.7.10.7</text>
</g>
<g id="clust5" class="cluster">
<title>cluster_N0.0.7.4</title>
<polygon fill="none" stroke="black" points="779,-8 779,-570.5 885,-570.5 885,-8 779,-8"/>
<text text-anchor="middle" x="832" y="-553.2" font-family="Times,serif" font-size="14.00">Step 5: N0.0.7.4</text>
</g>
<g id="clust6" class="cluster">
<title>cluster_N0.0.7.4.25</title>
<polygon fill="none" stroke="black" points="893,-224 893,-570.5 1016,-570.5 1016,-224 893,-224"/>
<text text-anchor="middle" x="954.5" y="-553.2" font-family="Times,serif" font-size="14.00">Step 6: N0.0.7.4.25</text>
</g>
<g id="clust7" class="cluster">
<title>cluster_N0.0.7.4.25.4</title>
<polygon fill="none" stroke="black" points="1024,-494 1024,-570.5 1202,-570.5 1202,-494 1024,-494"/>
<text text-anchor="middle" x="1113" y="-553.2" font-family="Times,serif" font-size="14.00">Step 7: N0.0.7.4.25.4</text>
</g>
<g id="clust8" class="cluster">
<title>cluster_N0.0.7.4.41</title>
<polygon fill="none" stroke="black" points="1210,-224 1210,-696.5 1570,-696.5 1570,-224 1210,-224"/>
<text text-anchor="middle" x="1390" y="-679.2" font-family="Times,serif" font-size="14.00">Step 8: N0.0.7.4.41</text>
</g>
<g id="clust9" class="cluster">
<title>cluster_N0.0.7.4.41.4</title>
<polygon fill="none" stroke="black" points="1578,-494 1578,-570.5 1834,-570.5 1834,-494 1578,-494"/>
<text text-anchor="middle" x="1706" y="-553.2" font-family="Times,serif" font-size="14.00">Step 9: N0.0.7.4.41.4</text>
</g>
<g id="clust10" class="cluster">
<title>cluster_N0.0.7.4.62</title>
<polygon fill="none" stroke="black" points="1842,-224 1842,-589.5 2384,-589.5 2384,-224 1842,-224"/>
<text text-anchor="middle" x="2113" y="-572.2" font-family="Times,serif" font-size="14.00">Step 10: N0.0.7.4.62</text>
</g>
<g id="clust11" class="cluster">
<title>cluster_N0.0.7.4.62.4</title>
<polygon fill="none" stroke="black" points="2392,-494 2392,-570.5 2642,-570.5 2642,-494 2392,-494"/>
<text text-anchor="middle" x="2517" y="-553.2" font-family="Times,serif" font-size="14.00">Step 11: N0.0.7.4.62.4</text>
</g>
<!-- N0.0.0 -->
<g id="node1" class="node">
<title>N0.0.0</title>
<polygon fill="white" stroke="black" points="77,-538 23,-538 23,-502 77,-502 77,-538"/>
<text text-anchor="middle" x="50" y="-514.95" font-family="Times,serif" font-size="14.00">select</text>
</g>
<!-- N0.0.1 -->
<g id="node2" class="node">
<title>N0.0.1</title>
<polygon fill="white" stroke="black" points="77,-340 23,-340 23,-304 77,-304 77,-340"/>
<text text-anchor="middle" x="50" y="-316.95" font-family="Times,serif" font-size="14.00">*</text>
</g>
<!-- N0.0.0&#45;&gt;N0.0.1 -->
<g id="edge1" class="edge">
<title>N0.0.0&#45;&gt;N0.0.1</title>
<path fill="none" stroke="black" d="M50,-501.61C50,-467.68 50,-392.41 50,-351.24"/>
<polygon fill="black" stroke="black" points="53.5,-351.35 50,-341.35 46.5,-351.35 53.5,-351.35"/>
</g>
<!-- N0.0.2 -->
<g id="node3" class="node">
<title>N0.0.2</title>
<polygon fill="white" stroke="black" points="77,-268 23,-268 23,-232 77,-232 77,-268"/>
<text text-anchor="middle" x="50" y="-244.95" font-family="Times,serif" font-size="14.00">from</text>
</g>
<!-- N0.0.1&#45;&gt;N0.0.2 -->
<g id="edge2" class="edge">
<title>N0.0.1&#45;&gt;N0.0.2</title>
<path fill="none" stroke="black" d="M50,-303.7C50,-296.24 50,-287.32 50,-278.97"/>
<polygon fill="black" stroke="black" points="53.5,-279.1 50,-269.1 46.5,-279.1 53.5,-279.1"/>
</g>
<!-- N0.0.3 -->
<g id="node4" class="node">
<title>N0.0.3</title>
<polygon fill="#ffaaaa" stroke="black" points="77,-196 23,-196 23,-160 77,-160 77,-196"/>
<text text-anchor="middle" x="50" y="-172.95" font-family="Times,serif" font-size="14.00">N0.0.7</text>
</g>
<!-- N0.0.2&#45;&gt;N0.0.3 -->
<g id="edge3" class="edge">
<title>N0.0.2&#45;&gt;N0.0.3</title>
<path fill="none" stroke="black" d="M50,-231.7C50,-224.24 50,-215.32 50,-206.97"/>
<polygon fill="black" stroke="black" points="53.5,-207.1 50,-197.1 46.5,-207.1 53.5,-207.1"/>
</g>
<!-- N0.0.7.0 -->
<g id="node5" class="node">
<title>N0.0.7.0</title>
<polygon fill="white" stroke="black" points="273,-538 219,-538 219,-502 273,-502 273,-538"/>
<text text-anchor="middle" x="246" y="-514.95" font-family="Times,serif" font-size="14.00">select</text>
</g>
<!-- N0.0.7.1 -->
<g id="node6" class="node">
<title>N0.0.7.1</title>
<polygon fill="#ffaaaa" stroke="black" points="278,-340 214,-340 214,-304 278,-304 278,-340"/>
<text text-anchor="middle" x="246" y="-316.95" font-family="Times,serif" font-size="14.00">N0.0.7.4</text>
</g>
<!-- N0.0.7.0&#45;&gt;N0.0.7.1 -->
<g id="edge4" class="edge">
<title>N0.0.7.0&#45;&gt;N0.0.7.1</title>
<path fill="none" stroke="black" d="M246,-501.61C246,-467.68 246,-392.41 246,-351.24"/>
<polygon fill="black" stroke="black" points="249.5,-351.35 246,-341.35 242.5,-351.35 249.5,-351.35"/>
</g>
<!-- N0.0.7.2 -->
<g id="node7" class="node">
<title>N0.0.7.2</title>
<polygon fill="white" stroke="black" points="273,-268 219,-268 219,-232 273,-232 273,-268"/>
<text text-anchor="middle" x="246" y="-244.95" font-family="Times,serif" font-size="14.00">from</text>
</g>
<!-- N0.0.7.1&#45;&gt;N0.0.7.2 -->
<g id="edge5" class="edge">
<title>N0.0.7.1&#45;&gt;N0.0.7.2</title>
<path fill="none" stroke="black" d="M246,-303.7C246,-296.24 246,-287.32 246,-278.97"/>
<polygon fill="black" stroke="black" points="249.5,-279.1 246,-269.1 242.5,-279.1 249.5,-279.1"/>
</g>
<!-- N0.0.7.3 -->
<g id="node8" class="node">
<title>N0.0.7.3</title>
<polygon fill="white" stroke="black" points="281.38,-196 210.62,-196 210.62,-160 281.38,-160 281.38,-196"/>
<text text-anchor="middle" x="246" y="-172.95" font-family="Times,serif" font-size="14.00">N0.0.7.10</text>
</g>
<!-- N0.0.7.2&#45;&gt;N0.0.7.3 -->
<g id="edge6" class="edge">
<title>N0.0.7.2&#45;&gt;N0.0.7.3</title>
<path fill="none" stroke="black" d="M246,-231.7C246,-224.24 246,-215.32 246,-206.97"/>
<polygon fill="black" stroke="black" points="249.5,-207.1 246,-197.1 242.5,-207.1 249.5,-207.1"/>
</g>
<!-- N0.0.7.4 -->
<g id="node9" class="node">
<title>N0.0.7.4</title>
<polygon fill="white" stroke="black" points="383,-124 109,-124 109,-88 383,-88 383,-124"/>
<text text-anchor="middle" x="246" y="-100.95" font-family="Times,serif" font-size="14.00">where gam.acid=t.acid and gam.acid=lam.acid</text>
</g>
<!-- N0.0.7.3&#45;&gt;N0.0.7.4 -->
<g id="edge7" class="edge">
<title>N0.0.7.3&#45;&gt;N0.0.7.4</title>
<path fill="none" stroke="black" d="M246,-159.7C246,-152.24 246,-143.32 246,-134.97"/>
<polygon fill="black" stroke="black" points="249.5,-135.1 246,-125.1 242.5,-135.1 249.5,-135.1"/>
</g>
<!-- N0.0.7.10.0 -->
<g id="node10" class="node">
<title>N0.0.7.10.0</title>
<polygon fill="white" stroke="black" points="497.12,-538 412.88,-538 412.88,-502 497.12,-502 497.12,-538"/>
<text text-anchor="middle" x="455" y="-514.95" font-family="Times,serif" font-size="14.00">tbaadm.gam</text>
</g>
<!-- N0.0.7.10.1 -->
<g id="node11" class="node">
<title>N0.0.7.10.1</title>
<polygon fill="white" stroke="black" points="495.62,-340 414.38,-340 414.38,-304 495.62,-304 495.62,-340"/>
<text text-anchor="middle" x="455" y="-316.95" font-family="Times,serif" font-size="14.00">tbaadm.lam</text>
</g>
<!-- N0.0.7.10.0&#45;&gt;N0.0.7.10.1 -->
<g id="edge8" class="edge">
<title>N0.0.7.10.0&#45;&gt;N0.0.7.10.1</title>
<path fill="none" stroke="black" d="M455,-501.61C455,-467.68 455,-392.41 455,-351.24"/>
<polygon fill="black" stroke="black" points="458.5,-351.35 455,-341.35 451.5,-351.35 458.5,-351.35"/>
</g>
<!-- N0.0.7.10.2 -->
<g id="node12" class="node">
<title>N0.0.7.10.2</title>
<polygon fill="white" stroke="black" points="495.62,-268 414.38,-268 414.38,-232 495.62,-232 495.62,-268"/>
<text text-anchor="middle" x="455" y="-244.95" font-family="Times,serif" font-size="14.00">N0.0.7.10.7</text>
</g>
<!-- N0.0.7.10.1&#45;&gt;N0.0.7.10.2 -->
<g id="edge9" class="edge">
<title>N0.0.7.10.1&#45;&gt;N0.0.7.10.2</title>
<path fill="none" stroke="black" d="M455,-303.7C455,-296.24 455,-287.32 455,-278.97"/>
<polygon fill="black" stroke="black" points="458.5,-279.1 455,-269.1 451.5,-279.1 458.5,-279.1"/>
</g>
<!-- N0.0.7.10.7.0 -->
<g id="node13" class="node">
<title>N0.0.7.10.7.0</title>
<polygon fill="white" stroke="black" points="762.5,-622.75 527.5,-622.75 527.5,-417.25 762.5,-417.25 762.5,-622.75"/>
<text text-anchor="middle" x="645" y="-605.45" font-family="Times,serif" font-size="14.00">(</text>
<text text-anchor="middle" x="645" y="-588.95" font-family="Times,serif" font-size="14.00">select &#39;SM5494538&#39; acid,</text>
<text text-anchor="middle" x="645" y="-572.45" font-family="Times,serif" font-size="14.00">to_date(&#39;16&#45;Nov&#45;2018&#39;,</text>
<text text-anchor="middle" x="645" y="-555.95" font-family="Times,serif" font-size="14.00">&#39;DD&#45;MON&#45;YYYY&#39;) start_date,</text>
<text text-anchor="middle" x="645" y="-539.45" font-family="Times,serif" font-size="14.00">to_date(&#39;11&#45;May&#45;2019&#39;,</text>
<text text-anchor="middle" x="645" y="-506.95" font-family="Times,serif" font-size="14.00">...</text>
<text text-anchor="middle" x="645" y="-490.45" font-family="Times,serif" font-size="14.00">&#39;31&#45;Jul&#45;2020&#39;,</text>
<text text-anchor="middle" x="645" y="-473.95" font-family="Times,serif" font-size="14.00">&#39;DD&#45;MON&#45;YYYY&#39;) start_date,</text>
<text text-anchor="middle" x="645" y="-457.45" font-family="Times,serif" font-size="14.00">to_date(&#39;29&#45;Sep&#45;2020&#39;,</text>
<text text-anchor="middle" x="645" y="-440.95" font-family="Times,serif" font-size="14.00">&#39;DD&#45;MON&#45;YYYY&#39;) end_date from dual</text>
<text text-anchor="middle" x="645" y="-424.45" font-family="Times,serif" font-size="14.00">)</text>
</g>
<!-- N0.0.7.10.7.1 -->
<g id="node14" class="node">
<title>N0.0.7.10.7.1</title>
<polygon fill="white" stroke="black" points="672,-340 618,-340 618,-304 672,-304 672,-340"/>
<text text-anchor="middle" x="645" y="-316.95" font-family="Times,serif" font-size="14.00">t</text>
</g>
<!-- N0.0.7.10.7.0&#45;&gt;N0.0.7.10.7.1 -->
<g id="edge10" class="edge">
<title>N0.0.7.10.7.0&#45;&gt;N0.0.7.10.7.1</title>
<path fill="none" stroke="black" d="M645,-416.98C645,-392.68 645,-368.71 645,-351.06"/>
<polygon fill="black" stroke="black" points="648.5,-351.18 645,-341.18 641.5,-351.18 648.5,-351.18"/>
</g>
<!-- N0.0.7.4.0 -->
<g id="node15" class="node">
<title>N0.0.7.4.0</title>
<polygon fill="#ffaaaa" stroke="black" points="872.62,-538 791.38,-538 791.38,-502 872.62,-502 872.62,-538"/>
<text text-anchor="middle" x="832" y="-514.95" font-family="Times,serif" font-size="14.00">N0.0.7.4.25</text>
</g>
<!-- N0.0.7.4.1 -->
<g id="node16" class="node">
<title>N0.0.7.4.1</title>
<polygon fill="white" stroke="black" points="859,-340 805,-340 805,-304 859,-304 859,-340"/>
<text text-anchor="middle" x="832" y="-316.95" font-family="Times,serif" font-size="14.00">...</text>
</g>
<!-- N0.0.7.4.0&#45;&gt;N0.0.7.4.1 -->
<g id="edge11" class="edge">
<title>N0.0.7.4.0&#45;&gt;N0.0.7.4.1</title>
<path fill="none" stroke="black" d="M832,-501.61C832,-467.68 832,-392.41 832,-351.24"/>
<polygon fill="black" stroke="black" points="835.5,-351.35 832,-341.35 828.5,-351.35 835.5,-351.35"/>
</g>
<!-- N0.0.7.4.2 -->
<g id="node17" class="node">
<title>N0.0.7.4.2</title>
<polygon fill="#ffaaaa" stroke="black" points="872.62,-268 791.38,-268 791.38,-232 872.62,-232 872.62,-268"/>
<text text-anchor="middle" x="832" y="-244.95" font-family="Times,serif" font-size="14.00">N0.0.7.4.41</text>
</g>
<!-- N0.0.7.4.1&#45;&gt;N0.0.7.4.2 -->
<g id="edge12" class="edge">
<title>N0.0.7.4.1&#45;&gt;N0.0.7.4.2</title>
<path fill="none" stroke="black" d="M832,-303.7C832,-296.24 832,-287.32 832,-278.97"/>
<polygon fill="black" stroke="black" points="835.5,-279.1 832,-269.1 828.5,-279.1 835.5,-279.1"/>
</g>
<!-- N0.0.7.4.3 -->
<g id="node18" class="node">
<title>N0.0.7.4.3</title>
<polygon fill="white" stroke="black" points="859,-196 805,-196 805,-160 859,-160 859,-196"/>
<text text-anchor="middle" x="832" y="-172.95" font-family="Times,serif" font-size="14.00">...</text>
</g>
<!-- N0.0.7.4.2&#45;&gt;N0.0.7.4.3 -->
<g id="edge13" class="edge">
<title>N0.0.7.4.2&#45;&gt;N0.0.7.4.3</title>
<path fill="none" stroke="black" d="M832,-231.7C832,-224.24 832,-215.32 832,-206.97"/>
<polygon fill="black" stroke="black" points="835.5,-207.1 832,-197.1 828.5,-207.1 835.5,-207.1"/>
</g>
<!-- N0.0.7.4.4 -->
<g id="node19" class="node">
<title>N0.0.7.4.4</title>
<polygon fill="#ffaaaa" stroke="black" points="872.62,-124 791.38,-124 791.38,-88 872.62,-88 872.62,-124"/>
<text text-anchor="middle" x="832" y="-100.95" font-family="Times,serif" font-size="14.00">N0.0.7.4.62</text>
</g>
<!-- N0.0.7.4.3&#45;&gt;N0.0.7.4.4 -->
<g id="edge14" class="edge">
<title>N0.0.7.4.3&#45;&gt;N0.0.7.4.4</title>
<path fill="none" stroke="black" d="M832,-159.7C832,-152.24 832,-143.32 832,-134.97"/>
<polygon fill="black" stroke="black" points="835.5,-135.1 832,-125.1 828.5,-135.1 835.5,-135.1"/>
</g>
<!-- N0.0.7.4.5 -->
<g id="node20" class="node">
<title>N0.0.7.4.5</title>
<polygon fill="white" stroke="black" points="859,-52 805,-52 805,-16 859,-16 859,-52"/>
<text text-anchor="middle" x="832" y="-28.95" font-family="Times,serif" font-size="14.00">...</text>
</g>
<!-- N0.0.7.4.4&#45;&gt;N0.0.7.4.5 -->
<g id="edge15" class="edge">
<title>N0.0.7.4.4&#45;&gt;N0.0.7.4.5</title>
<path fill="none" stroke="black" d="M832,-87.7C832,-80.24 832,-71.32 832,-62.97"/>
<polygon fill="black" stroke="black" points="835.5,-63.1 832,-53.1 828.5,-63.1 835.5,-63.1"/>
</g>
<!-- N0.0.7.4.25.0 -->
<g id="node21" class="node">
<title>N0.0.7.4.25.0</title>
<polygon fill="white" stroke="black" points="988.25,-538 919.75,-538 919.75,-502 988.25,-502 988.25,-538"/>
<text text-anchor="middle" x="954" y="-514.95" font-family="Times,serif" font-size="14.00">start_date</text>
</g>
<!-- N0.0.7.4.25.1 -->
<g id="node22" class="node">
<title>N0.0.7.4.25.1</title>
<polygon fill="white" stroke="black" points="981,-340 927,-340 927,-304 981,-304 981,-340"/>
<text text-anchor="middle" x="954" y="-316.95" font-family="Times,serif" font-size="14.00">as</text>
</g>
<!-- N0.0.7.4.25.0&#45;&gt;N0.0.7.4.25.1 -->
<g id="edge16" class="edge">
<title>N0.0.7.4.25.0&#45;&gt;N0.0.7.4.25.1</title>
<path fill="none" stroke="black" d="M954,-501.61C954,-467.68 954,-392.41 954,-351.24"/>
<polygon fill="black" stroke="black" points="957.5,-351.35 954,-341.35 950.5,-351.35 957.5,-351.35"/>
</g>
<!-- N0.0.7.4.25.2 -->
<g id="node23" class="node">
<title>N0.0.7.4.25.2</title>
<polygon fill="#ffaaaa" stroke="black" points="999.88,-268 908.12,-268 908.12,-232 999.88,-232 999.88,-268"/>
<text text-anchor="middle" x="954" y="-244.95" font-family="Times,serif" font-size="14.00">N0.0.7.4.25.4</text>
</g>
<!-- N0.0.7.4.25.1&#45;&gt;N0.0.7.4.25.2 -->
<g id="edge17" class="edge">
<title>N0.0.7.4.25.1&#45;&gt;N0.0.7.4.25.2</title>
<path fill="none" stroke="black" d="M954,-303.7C954,-296.24 954,-287.32 954,-278.97"/>
<polygon fill="black" stroke="black" points="957.5,-279.1 954,-269.1 950.5,-279.1 957.5,-279.1"/>
</g>
<!-- N0.0.7.4.25.4.0 -->
<g id="node24" class="node">
<title>N0.0.7.4.25.4.0</title>
<polygon fill="#ffaaaa" stroke="black" points="1194.12,-538 1031.88,-538 1031.88,-502 1194.12,-502 1194.12,-538"/>
<text text-anchor="middle" x="1113" y="-514.95" font-family="Times,serif" font-size="14.00">&quot;Correct_Repay_Start_Dt&quot;</text>
</g>
<!-- N0.0.7.4.41.0 -->
<g id="node25" class="node">
<title>N0.0.7.4.41.0</title>
<polygon fill="white" stroke="black" points="1561.5,-664 1218.5,-664 1218.5,-376 1561.5,-376 1561.5,-664"/>
<text text-anchor="middle" x="1390" y="-646.7" font-family="Times,serif" font-size="14.00">Decode(dfscust.dfs_utilities.get_loan_status_post(gam.acid,</text>
<text text-anchor="middle" x="1390" y="-630.2" font-family="Times,serif" font-size="14.00">start_date),</text>
<text text-anchor="middle" x="1390" y="-613.7" font-family="Times,serif" font-size="14.00">&#39;S&#39;,</text>
<text text-anchor="middle" x="1390" y="-597.2" font-family="Times,serif" font-size="14.00">&#39;In School&#39;,</text>
<text text-anchor="middle" x="1390" y="-580.7" font-family="Times,serif" font-size="14.00">&#39;H&#39;,</text>
<text text-anchor="middle" x="1390" y="-564.2" font-family="Times,serif" font-size="14.00">&#39;Hol</text>
<text text-anchor="middle" x="1390" y="-547.7" font-family="Times,serif" font-size="14.00">...</text>
<text text-anchor="middle" x="1390" y="-515.2" font-family="Times,serif" font-size="14.00">&#39;Restructure&#39;,</text>
<text text-anchor="middle" x="1390" y="-498.7" font-family="Times,serif" font-size="14.00">&#39;I&#39;,</text>
<text text-anchor="middle" x="1390" y="-482.2" font-family="Times,serif" font-size="14.00">&#39;Disaster Relief&#39;,</text>
<text text-anchor="middle" x="1390" y="-465.7" font-family="Times,serif" font-size="14.00">&#39;Q&#39;,</text>
<text text-anchor="middle" x="1390" y="-449.2" font-family="Times,serif" font-size="14.00">&#39;Settlement Pending&#39;,</text>
<text text-anchor="middle" x="1390" y="-432.7" font-family="Times,serif" font-size="14.00">&#39;K&#39;,</text>
<text text-anchor="middle" x="1390" y="-416.2" font-family="Times,serif" font-size="14.00">&#39;Write Off&#39;,</text>
<text text-anchor="middle" x="1390" y="-399.7" font-family="Times,serif" font-size="14.00">&#39;Z&#39;,</text>
<text text-anchor="middle" x="1390" y="-383.2" font-family="Times,serif" font-size="14.00">&#39;Settled&#39;)</text>
</g>
<!-- N0.0.7.4.41.1 -->
<g id="node26" class="node">
<title>N0.0.7.4.41.1</title>
<polygon fill="white" stroke="black" points="1417,-340 1363,-340 1363,-304 1417,-304 1417,-340"/>
<text text-anchor="middle" x="1390" y="-316.95" font-family="Times,serif" font-size="14.00">as</text>
</g>
<!-- N0.0.7.4.41.0&#45;&gt;N0.0.7.4.41.1 -->
<g id="edge18" class="edge">
<title>N0.0.7.4.41.0&#45;&gt;N0.0.7.4.41.1</title>
<path fill="none" stroke="black" d="M1390,-375.52C1390,-366.59 1390,-358.31 1390,-351.08"/>
<polygon fill="black" stroke="black" points="1393.5,-351.32 1390,-341.32 1386.5,-351.32 1393.5,-351.32"/>
</g>
<!-- N0.0.7.4.41.2 -->
<g id="node27" class="node">
<title>N0.0.7.4.41.2</title>
<polygon fill="#ffaaaa" stroke="black" points="1435.88,-268 1344.12,-268 1344.12,-232 1435.88,-232 1435.88,-268"/>
<text text-anchor="middle" x="1390" y="-244.95" font-family="Times,serif" font-size="14.00">N0.0.7.4.41.4</text>
</g>
<!-- N0.0.7.4.41.1&#45;&gt;N0.0.7.4.41.2 -->
<g id="edge19" class="edge">
<title>N0.0.7.4.41.1&#45;&gt;N0.0.7.4.41.2</title>
<path fill="none" stroke="black" d="M1390,-303.7C1390,-296.24 1390,-287.32 1390,-278.97"/>
<polygon fill="black" stroke="black" points="1393.5,-279.1 1390,-269.1 1386.5,-279.1 1393.5,-279.1"/>
</g>
<!-- N0.0.7.4.41.4.0 -->
<g id="node28" class="node">
<title>N0.0.7.4.41.4.0</title>
<polygon fill="#ffaaaa" stroke="black" points="1826.12,-538 1585.88,-538 1585.88,-502 1826.12,-502 1826.12,-538"/>
<text text-anchor="middle" x="1706" y="-514.95" font-family="Times,serif" font-size="14.00">&quot;Ln_Status_at_Correct_Repay_Start_Dt&quot;</text>
</g>
<!-- N0.0.7.4.62.0 -->
<g id="node29" class="node">
<title>N0.0.7.4.62.0</title>
<polygon fill="white" stroke="black" points="2376,-557 1850,-557 1850,-483 2376,-483 2376,-557"/>
<text text-anchor="middle" x="2113" y="-539.7" font-family="Times,serif" font-size="14.00">(select </text>
<text text-anchor="middle" x="2113" y="-523.2" font-family="Times,serif" font-size="14.00">case when value_date_bal &gt;=0 then 0</text>
<text text-anchor="middle" x="2113" y="-506.7" font-family="Times,serif" font-size="14.00">else abs(value_date_bal) end </text>
<text text-anchor="middle" x="2113" y="-490.2" font-family="Times,serif" font-size="14.00">from tbaadm.eab where acid=gam.acid and t.start_date between eod_date and end_eod_date)</text>
</g>
<!-- N0.0.7.4.62.1 -->
<g id="node30" class="node">
<title>N0.0.7.4.62.1</title>
<polygon fill="white" stroke="black" points="2140,-340 2086,-340 2086,-304 2140,-304 2140,-340"/>
<text text-anchor="middle" x="2113" y="-316.95" font-family="Times,serif" font-size="14.00">as</text>
</g>
<!-- N0.0.7.4.62.0&#45;&gt;N0.0.7.4.62.1 -->
<g id="edge20" class="edge">
<title>N0.0.7.4.62.0&#45;&gt;N0.0.7.4.62.1</title>
<path fill="none" stroke="black" d="M2113,-482.59C2113,-444.6 2113,-385.83 2113,-351.21"/>
<polygon fill="black" stroke="black" points="2116.5,-351.46 2113,-341.46 2109.5,-351.46 2116.5,-351.46"/>
</g>
<!-- N0.0.7.4.62.2 -->
<g id="node31" class="node">
<title>N0.0.7.4.62.2</title>
<polygon fill="#ffaaaa" stroke="black" points="2158.88,-268 2067.12,-268 2067.12,-232 2158.88,-232 2158.88,-268"/>
<text text-anchor="middle" x="2113" y="-244.95" font-family="Times,serif" font-size="14.00">N0.0.7.4.62.4</text>
</g>
<!-- N0.0.7.4.62.1&#45;&gt;N0.0.7.4.62.2 -->
<g id="edge21" class="edge">
<title>N0.0.7.4.62.1&#45;&gt;N0.0.7.4.62.2</title>
<path fill="none" stroke="black" d="M2113,-303.7C2113,-296.24 2113,-287.32 2113,-278.97"/>
<polygon fill="black" stroke="black" points="2116.5,-279.1 2113,-269.1 2109.5,-279.1 2116.5,-279.1"/>
</g>
<!-- N0.0.7.4.62.4.0 -->
<g id="node32" class="node">
<title>N0.0.7.4.62.4.0</title>
<polygon fill="#ffaaaa" stroke="black" points="2633.75,-538 2400.25,-538 2400.25,-502 2633.75,-502 2633.75,-538"/>
<text text-anchor="middle" x="2517" y="-514.95" font-family="Times,serif" font-size="14.00">&quot;Prin_Bal_at_Correct_Repay_Start_Dt&quot;</text>
</g>
</g>
</svg>
