<?xml version="1.0" encoding="UTF-8" standalone="no"?>
<!DOCTYPE svg PUBLIC "-//W3C//DTD SVG 1.1//EN"
 "http://www.w3.org/Graphics/SVG/1.1/DTD/svg11.dtd">
<!-- Generated by graphviz version 8.1.0 (20230707.0739)
 -->
<!-- Pages: 1 -->
<svg width="1533pt" height="641pt"
 viewBox="0.00 0.00 1533.00 640.50" xmlns="http://www.w3.org/2000/svg" xmlns:xlink="http://www.w3.org/1999/xlink">
<g id="graph0" class="graph" transform="scale(1 1) rotate(0) translate(4 636.5)">
<polygon fill="white" stroke="none" points="-4,4 -4,-636.5 1529,-636.5 1529,4 -4,4"/>
<g id="clust1" class="cluster">
<title>cluster_N0.0</title>
<polygon fill="none" stroke="black" points="8,-80 8,-498.5 93,-498.5 93,-80 8,-80"/>
<text text-anchor="middle" x="50.5" y="-481.2" font-family="Times,serif" font-size="14.00">Step 1: N0.0</text>
</g>
<g id="clust2" class="cluster">
<title>cluster_N0.0.7</title>
<polygon fill="none" stroke="black" points="101,-8 101,-498.5 391,-498.5 391,-8 101,-8"/>
<text text-anchor="middle" x="246" y="-481.2" font-family="Times,serif" font-size="14.00">Step 2: N0.0.7</text>
</g>
<g id="clust3" class="cluster">
<title>cluster_N0.0.7.10</title>
<polygon fill="none" stroke="black" points="399,-152 399,-498.5 511,-498.5 511,-152 399,-152"/>
<text text-anchor="middle" x="455" y="-481.2" font-family="Times,serif" font-size="14.00">Step 3: N0.0.7.10</text>
</g>
<g id="clust4" class="cluster">
<title>cluster_N0.0.7.10.7</title>
<polygon fill="none" stroke="black" points="519,-224 519,-583.25 771,-583.25 771,-224 519,-224"/>
<text text-anchor="middle" x="645" y="-565.95" font-family="Times,serif" font-size="14.00">Step 4: N0.0.7.10.7</text>
</g>
<g id="clust5" class="cluster">
<title>cluster_N0.0.7.4</title>
<polygon fill="none" stroke="black" points="779,-224 779,-498.5 885,-498.5 885,-224 779,-224"/>
<text text-anchor="middle" x="832" y="-481.2" font-family="Times,serif" font-size="14.00">Step 5: N0.0.7.4</text>
</g>
<g id="clust6" class="cluster">
<title>cluster_N0.0.7.4.41</title>
<polygon fill="none" stroke="black" points="893,-152 893,-624.5 1253,-624.5 1253,-152 893,-152"/>
<text text-anchor="middle" x="1073" y="-607.2" font-family="Times,serif" font-size="14.00">Step 6: N0.0.7.4.41</text>
</g>
<g id="clust7" class="cluster">
<title>cluster_N0.0.7.4.41.4</title>
<polygon fill="none" stroke="black" points="1261,-422 1261,-498.5 1517,-498.5 1517,-422 1261,-422"/>
<text text-anchor="middle" x="1389" y="-481.2" font-family="Times,serif" font-size="14.00">Step 7: N0.0.7.4.41.4</text>
</g>
<!-- N0.0.0 -->
<g id="node1" class="node">
<title>N0.0.0</title>
<polygon fill="white" stroke="black" points="77,-466 23,-466 23,-430 77,-430 77,-466"/>
<text text-anchor="middle" x="50" y="-442.95" font-family="Times,serif" font-size="14.00">select</text>
</g>
<!-- N0.0.1 -->
<g id="node2" class="node">
<title>N0.0.1</title>
<polygon fill="white" stroke="black" points="77,-268 23,-268 23,-232 77,-232 77,-268"/>
<text text-anchor="middle" x="50" y="-244.95" font-family="Times,serif" font-size="14.00">*</text>
</g>
<!-- N0.0.0&#45;&gt;N0.0.1 -->
<g id="edge1" class="edge">
<title>N0.0.0&#45;&gt;N0.0.1</title>
<path fill="none" stroke="black" d="M50,-429.61C50,-395.68 50,-320.41 50,-279.24"/>
<polygon fill="black" stroke="black" points="53.5,-279.35 50,-269.35 46.5,-279.35 53.5,-279.35"/>
</g>
<!-- N0.0.2 -->
<g id="node3" class="node">
<title>N0.0.2</title>
<polygon fill="white" stroke="black" points="77,-196 23,-196 23,-160 77,-160 77,-196"/>
<text text-anchor="middle" x="50" y="-172.95" font-family="Times,serif" font-size="14.00">from</text>
</g>
<!-- N0.0.1&#45;&gt;N0.0.2 -->
<g id="edge2" class="edge">
<title>N0.0.1&#45;&gt;N0.0.2</title>
<path fill="none" stroke="black" d="M50,-231.7C50,-224.24 50,-215.32 50,-206.97"/>
<polygon fill="black" stroke="black" points="53.5,-207.1 50,-197.1 46.5,-207.1 53.5,-207.1"/>
</g>
<!-- N0.0.3 -->
<g id="node4" class="node">
<title>N0.0.3</title>
<polygon fill="#ffaaaa" stroke="black" points="77,-124 23,-124 23,-88 77,-88 77,-124"/>
<text text-anchor="middle" x="50" y="-100.95" font-family="Times,serif" font-size="14.00">N0.0.7</text>
</g>
<!-- N0.0.2&#45;&gt;N0.0.3 -->
<g id="edge3" class="edge">
<title>N0.0.2&#45;&gt;N0.0.3</title>
<path fill="none" stroke="black" d="M50,-159.7C50,-152.24 50,-143.32 50,-134.97"/>
<polygon fill="black" stroke="black" points="53.5,-135.1 50,-125.1 46.5,-135.1 53.5,-135.1"/>
</g>
<!-- N0.0.7.0 -->
<g id="node5" class="node">
<title>N0.0.7.0</title>
<polygon fill="white" stroke="black" points="273,-466 219,-466 219,-430 273,-430 273,-466"/>
<text text-anchor="middle" x="246" y="-442.95" font-family="Times,serif" font-size="14.00">select</text>
</g>
<!-- N0.0.7.1 -->
<g id="node6" class="node">
<title>N0.0.7.1</title>
<polygon fill="#ffaaaa" stroke="black" points="278,-268 214,-268 214,-232 278,-232 278,-268"/>
<text text-anchor="middle" x="246" y="-244.95" font-family="Times,serif" font-size="14.00">N0.0.7.4</text>
</g>
<!-- N0.0.7.0&#45;&gt;N0.0.7.1 -->
<g id="edge4" class="edge">
<title>N0.0.7.0&#45;&gt;N0.0.7.1</title>
<path fill="none" stroke="black" d="M246,-429.61C246,-395.68 246,-320.41 246,-279.24"/>
<polygon fill="black" stroke="black" points="249.5,-279.35 246,-269.35 242.5,-279.35 249.5,-279.35"/>
</g>
<!-- N0.0.7.2 -->
<g id="node7" class="node">
<title>N0.0.7.2</title>
<polygon fill="white" stroke="black" points="273,-196 219,-196 219,-160 273,-160 273,-196"/>
<text text-anchor="middle" x="246" y="-172.95" font-family="Times,serif" font-size="14.00">from</text>
</g>
<!-- N0.0.7.1&#45;&gt;N0.0.7.2 -->
<g id="edge5" class="edge">
<title>N0.0.7.1&#45;&gt;N0.0.7.2</title>
<path fill="none" stroke="black" d="M246,-231.7C246,-224.24 246,-215.32 246,-206.97"/>
<polygon fill="black" stroke="black" points="249.5,-207.1 246,-197.1 242.5,-207.1 249.5,-207.1"/>
</g>
<!-- N0.0.7.3 -->
<g id="node8" class="node">
<title>N0.0.7.3</title>
<polygon fill="white" stroke="black" points="281.38,-124 210.62,-124 210.62,-88 281.38,-88 281.38,-124"/>
<text text-anchor="middle" x="246" y="-100.95" font-family="Times,serif" font-size="14.00">N0.0.7.10</text>
</g>
<!-- N0.0.7.2&#45;&gt;N0.0.7.3 -->
<g id="edge6" class="edge">
<title>N0.0.7.2&#45;&gt;N0.0.7.3</title>
<path fill="none" stroke="black" d="M246,-159.7C246,-152.24 246,-143.32 246,-134.97"/>
<polygon fill="black" stroke="black" points="249.5,-135.1 246,-125.1 242.5,-135.1 249.5,-135.1"/>
</g>
<!-- N0.0.7.4 -->
<g id="node9" class="node">
<title>N0.0.7.4</title>
<polygon fill="white" stroke="black" points="383,-52 109,-52 109,-16 383,-16 383,-52"/>
<text text-anchor="middle" x="246" y="-28.95" font-family="Times,serif" font-size="14.00">where gam.acid=t.acid and gam.acid=lam.acid</text>
</g>
<!-- N0.0.7.3&#45;&gt;N0.0.7.4 -->
<g id="edge7" class="edge">
<title>N0.0.7.3&#45;&gt;N0.0.7.4</title>
<path fill="none" stroke="black" d="M246,-87.7C246,-80.24 246,-71.32 246,-62.97"/>
<polygon fill="black" stroke="black" points="249.5,-63.1 246,-53.1 242.5,-63.1 249.5,-63.1"/>
</g>
<!-- N0.0.7.10.0 -->
<g id="node10" class="node">
<title>N0.0.7.10.0</title>
<polygon fill="white" stroke="black" points="497.12,-466 412.88,-466 412.88,-430 497.12,-430 497.12,-466"/>
<text text-anchor="middle" x="455" y="-442.95" font-family="Times,serif" font-size="14.00">tbaadm.gam</text>
</g>
<!-- N0.0.7.10.1 -->
<g id="node11" class="node">
<title>N0.0.7.10.1</title>
<polygon fill="white" stroke="black" points="495.62,-268 414.38,-268 414.38,-232 495.62,-232 495.62,-268"/>
<text text-anchor="middle" x="455" y="-244.95" font-family="Times,serif" font-size="14.00">tbaadm.lam</text>
</g>
<!-- N0.0.7.10.0&#45;&gt;N0.0.7.10.1 -->
<g id="edge8" class="edge">
<title>N0.0.7.10.0&#45;&gt;N0.0.7.10.1</title>
<path fill="none" stroke="black" d="M455,-429.61C455,-395.68 455,-320.41 455,-279.24"/>
<polygon fill="black" stroke="black" points="458.5,-279.35 455,-269.35 451.5,-279.35 458.5,-279.35"/>
</g>
<!-- N0.0.7.10.2 -->
<g id="node12" class="node">
<title>N0.0.7.10.2</title>
<polygon fill="white" stroke="black" points="495.62,-196 414.38,-196 414.38,-160 495.62,-160 495.62,-196"/>
<text text-anchor="middle" x="455" y="-172.95" font-family="Times,serif" font-size="14.00">N0.0.7.10.7</text>
</g>
<!-- N0.0.7.10.1&#45;&gt;N0.0.7.10.2 -->
<g id="edge9" class="edge">
<title>N0.0.7.10.1&#45;&gt;N0.0.7.10.2</title>
<path fill="none" stroke="black" d="M455,-231.7C455,-224.24 455,-215.32 455,-206.97"/>
<polygon fill="black" stroke="black" points="458.5,-207.1 455,-197.1 451.5,-207.1 458.5,-207.1"/>
</g>
<!-- N0.0.7.10.7.0 -->
<g id="node13" class="node">
<title>N0.0.7.10.7.0</title>
<polygon fill="white" stroke="black" points="762.5,-550.75 527.5,-550.75 527.5,-345.25 762.5,-345.25 762.5,-550.75"/>
<text text-anchor="middle" x="645" y="-533.45" font-family="Times,serif" font-size="14.00">(</text>
<text text-anchor="middle" x="645" y="-516.95" font-family="Times,serif" font-size="14.00">select &#39;SM5494538&#39; acid,</text>
<text text-anchor="middle" x="645" y="-500.45" font-family="Times,serif" font-size="14.00">to_date(&#39;16&#45;Nov&#45;2018&#39;,</text>
<text text-anchor="middle" x="645" y="-483.95" font-family="Times,serif" font-size="14.00">&#39;DD&#45;MON&#45;YYYY&#39;) start_date,</text>
<text text-anchor="middle" x="645" y="-467.45" font-family="Times,serif" font-size="14.00">to_date(&#39;11&#45;May&#45;2019&#39;,</text>
<text text-anchor="middle" x="645" y="-434.95" font-family="Times,serif" font-size="14.00">...</text>
<text text-anchor="middle" x="645" y="-418.45" font-family="Times,serif" font-size="14.00">&#39;31&#45;Jul&#45;2020&#39;,</text>
<text text-anchor="middle" x="645" y="-401.95" font-family="Times,serif" font-size="14.00">&#39;DD&#45;MON&#45;YYYY&#39;) start_date,</text>
<text text-anchor="middle" x="645" y="-385.45" font-family="Times,serif" font-size="14.00">to_date(&#39;29&#45;Sep&#45;2020&#39;,</text>
<text text-anchor="middle" x="645" y="-368.95" font-family="Times,serif" font-size="14.00">&#39;DD&#45;MON&#45;YYYY&#39;) end_date from dual</text>
<text text-anchor="middle" x="645" y="-352.45" font-family="Times,serif" font-size="14.00">)</text>
</g>
<!-- N0.0.7.10.7.1 -->
<g id="node14" class="node">
<title>N0.0.7.10.7.1</title>
<polygon fill="white" stroke="black" points="672,-268 618,-268 618,-232 672,-232 672,-268"/>
<text text-anchor="middle" x="645" y="-244.95" font-family="Times,serif" font-size="14.00">t</text>
</g>
<!-- N0.0.7.10.7.0&#45;&gt;N0.0.7.10.7.1 -->
<g id="edge10" class="edge">
<title>N0.0.7.10.7.0&#45;&gt;N0.0.7.10.7.1</title>
<path fill="none" stroke="black" d="M645,-344.98C645,-320.68 645,-296.71 645,-279.06"/>
<polygon fill="black" stroke="black" points="648.5,-279.18 645,-269.18 641.5,-279.18 648.5,-279.18"/>
</g>
<!-- N0.0.7.4.0 -->
<g id="node15" class="node">
<title>N0.0.7.4.0</title>
<polygon fill="#ffaaaa" stroke="black" points="872.62,-466 791.38,-466 791.38,-430 872.62,-430 872.62,-466"/>
<text text-anchor="middle" x="832" y="-442.95" font-family="Times,serif" font-size="14.00">N0.0.7.4.41</text>
</g>
<!-- N0.0.7.4.1 -->
<g id="node16" class="node">
<title>N0.0.7.4.1</title>
<polygon fill="white" stroke="black" points="859,-268 805,-268 805,-232 859,-232 859,-268"/>
<text text-anchor="middle" x="832" y="-244.95" font-family="Times,serif" font-size="14.00">...</text>
</g>
<!-- N0.0.7.4.0&#45;&gt;N0.0.7.4.1 -->
<g id="edge11" class="edge">
<title>N0.0.7.4.0&#45;&gt;N0.0.7.4.1</title>
<path fill="none" stroke="black" d="M832,-429.61C832,-395.68 832,-320.41 832,-279.24"/>
<polygon fill="black" stroke="black" points="835.5,-279.35 832,-269.35 828.5,-279.35 835.5,-279.35"/>
</g>
<!-- N0.0.7.4.41.0 -->
<g id="node17" class="node">
<title>N0.0.7.4.41.0</title>
<polygon fill="white" stroke="black" points="1244.5,-592 901.5,-592 901.5,-304 1244.5,-304 1244.5,-592"/>
<text text-anchor="middle" x="1073" y="-574.7" font-family="Times,serif" font-size="14.00">Decode(dfscust.dfs_utilities.get_loan_status_post(gam.acid,</text>
<text text-anchor="middle" x="1073" y="-558.2" font-family="Times,serif" font-size="14.00">start_date),</text>
<text text-anchor="middle" x="1073" y="-541.7" font-family="Times,serif" font-size="14.00">&#39;S&#39;,</text>
<text text-anchor="middle" x="1073" y="-525.2" font-family="Times,serif" font-size="14.00">&#39;In School&#39;,</text>
<text text-anchor="middle" x="1073" y="-508.7" font-family="Times,serif" font-size="14.00">&#39;H&#39;,</text>
<text text-anchor="middle" x="1073" y="-492.2" font-family="Times,serif" font-size="14.00">&#39;Hol</text>
<text text-anchor="middle" x="1073" y="-475.7" font-family="Times,serif" font-size="14.00">...</text>
<text text-anchor="middle" x="1073" y="-443.2" font-family="Times,serif" font-size="14.00">&#39;Restructure&#39;,</text>
<text text-anchor="middle" x="1073" y="-426.7" font-family="Times,serif" font-size="14.00">&#39;I&#39;,</text>
<text text-anchor="middle" x="1073" y="-410.2" font-family="Times,serif" font-size="14.00">&#39;Disaster Relief&#39;,</text>
<text text-anchor="middle" x="1073" y="-393.7" font-family="Times,serif" font-size="14.00">&#39;Q&#39;,</text>
<text text-anchor="middle" x="1073" y="-377.2" font-family="Times,serif" font-size="14.00">&#39;Settlement Pending&#39;,</text>
<text text-anchor="middle" x="1073" y="-360.7" font-family="Times,serif" font-size="14.00">&#39;K&#39;,</text>
<text text-anchor="middle" x="1073" y="-344.2" font-family="Times,serif" font-size="14.00">&#39;Write Off&#39;,</text>
<text text-anchor="middle" x="1073" y="-327.7" font-family="Times,serif" font-size="14.00">&#39;Z&#39;,</text>
<text text-anchor="middle" x="1073" y="-311.2" font-family="Times,serif" font-size="14.00">&#39;Settled&#39;)</text>
</g>
<!-- N0.0.7.4.41.1 -->
<g id="node18" class="node">
<title>N0.0.7.4.41.1</title>
<polygon fill="white" stroke="black" points="1100,-268 1046,-268 1046,-232 1100,-232 1100,-268"/>
<text text-anchor="middle" x="1073" y="-244.95" font-family="Times,serif" font-size="14.00">as</text>
</g>
<!-- N0.0.7.4.41.0&#45;&gt;N0.0.7.4.41.1 -->
<g id="edge12" class="edge">
<title>N0.0.7.4.41.0&#45;&gt;N0.0.7.4.41.1</title>
<path fill="none" stroke="black" d="M1073,-303.52C1073,-294.59 1073,-286.31 1073,-279.08"/>
<polygon fill="black" stroke="black" points="1076.5,-279.32 1073,-269.32 1069.5,-279.32 1076.5,-279.32"/>
</g>
<!-- N0.0.7.4.41.2 -->
<g id="node19" class="node">
<title>N0.0.7.4.41.2</title>
<polygon fill="#ffaaaa" stroke="black" points="1118.88,-196 1027.12,-196 1027.12,-160 1118.88,-160 1118.88,-196"/>
<text text-anchor="middle" x="1073" y="-172.95" font-family="Times,serif" font-size="14.00">N0.0.7.4.41.4</text>
</g>
<!-- N0.0.7.4.41.1&#45;&gt;N0.0.7.4.41.2 -->
<g id="edge13" class="edge">
<title>N0.0.7.4.41.1&#45;&gt;N0.0.7.4.41.2</title>
<path fill="none" stroke="black" d="M1073,-231.7C1073,-224.24 1073,-215.32 1073,-206.97"/>
<polygon fill="black" stroke="black" points="1076.5,-207.1 1073,-197.1 1069.5,-207.1 1076.5,-207.1"/>
</g>
<!-- N0.0.7.4.41.4.0 -->
<g id="node20" class="node">
<title>N0.0.7.4.41.4.0</title>
<polygon fill="#ffaaaa" stroke="black" points="1509.12,-466 1268.88,-466 1268.88,-430 1509.12,-430 1509.12,-466"/>
<text text-anchor="middle" x="1389" y="-442.95" font-family="Times,serif" font-size="14.00">&quot;Ln_Status_at_Correct_Repay_Start_Dt&quot;</text>
</g>
</g>
</svg>
