<?xml version="1.0" encoding="UTF-8" standalone="no"?>
<!DOCTYPE svg PUBLIC "-//W3C//DTD SVG 1.1//EN"
 "http://www.w3.org/Graphics/SVG/1.1/DTD/svg11.dtd">
<!-- Generated by graphviz version 8.1.0 (20230707.0739)
 -->
<!-- Pages: 1 -->
<svg width="1160pt" height="558pt"
 viewBox="0.00 0.00 1160.00 558.00" xmlns="http://www.w3.org/2000/svg" xmlns:xlink="http://www.w3.org/1999/xlink">
<g id="graph0" class="graph" transform="scale(1 1) rotate(0) translate(4 554)">
<polygon fill="white" stroke="none" points="-4,4 -4,-554 1156,-554 1156,4 -4,4"/>
<g id="clust1" class="cluster">
<title>cluster_N0.0</title>
<polygon fill="none" stroke="black" points="8,-80 8,-457.25 93,-457.25 93,-80 8,-80"/>
<text text-anchor="middle" x="50.5" y="-439.95" font-family="Times,serif" font-size="14.00">Step 1: N0.0</text>
</g>
<g id="clust2" class="cluster">
<title>cluster_N0.0.7</title>
<polygon fill="none" stroke="black" points="101,-8 101,-457.25 391,-457.25 391,-8 101,-8"/>
<text text-anchor="middle" x="246" y="-439.95" font-family="Times,serif" font-size="14.00">Step 2: N0.0.7</text>
</g>
<g id="clust3" class="cluster">
<title>cluster_N0.0.7.10</title>
<polygon fill="none" stroke="black" points="399,-152 399,-457.25 511,-457.25 511,-152 399,-152"/>
<text text-anchor="middle" x="455" y="-439.95" font-family="Times,serif" font-size="14.00">Step 3: N0.0.7.10</text>
</g>
<g id="clust4" class="cluster">
<title>cluster_N0.0.7.10.7</title>
<polygon fill="none" stroke="black" points="519,-224 519,-542 771,-542 771,-224 519,-224"/>
<text text-anchor="middle" x="645" y="-524.7" font-family="Times,serif" font-size="14.00">Step 4: N0.0.7.10.7</text>
</g>
<g id="clust5" class="cluster">
<title>cluster_N0.0.7.4</title>
<polygon fill="none" stroke="black" points="779,-224 779,-457.25 885,-457.25 885,-224 779,-224"/>
<text text-anchor="middle" x="832" y="-439.95" font-family="Times,serif" font-size="14.00">Step 5: N0.0.7.4</text>
</g>
<g id="clust6" class="cluster">
<title>cluster_N0.0.7.4.4</title>
<polygon fill="none" stroke="black" points="893,-80 893,-457.25 1009,-457.25 1009,-80 893,-80"/>
<text text-anchor="middle" x="951" y="-439.95" font-family="Times,serif" font-size="14.00">Step 6: N0.0.7.4.4</text>
</g>
<g id="clust7" class="cluster">
<title>cluster_N0.0.7.4.4.6</title>
<polygon fill="none" stroke="black" points="1017,-380.75 1017,-457.25 1144,-457.25 1144,-380.75 1017,-380.75"/>
<text text-anchor="middle" x="1080.5" y="-439.95" font-family="Times,serif" font-size="14.00">Step 7: N0.0.7.4.4.6</text>
</g>
<!-- N0.0.0 -->
<g id="node1" class="node">
<title>N0.0.0</title>
<polygon fill="white" stroke="black" points="77,-424.75 23,-424.75 23,-388.75 77,-388.75 77,-424.75"/>
<text text-anchor="middle" x="50" y="-401.7" font-family="Times,serif" font-size="14.00">select</text>
</g>
<!-- N0.0.1 -->
<g id="node2" class="node">
<title>N0.0.1</title>
<polygon fill="white" stroke="black" points="77,-268 23,-268 23,-232 77,-232 77,-268"/>
<text text-anchor="middle" x="50" y="-244.95" font-family="Times,serif" font-size="14.00">*</text>
</g>
<!-- N0.0.0&#45;&gt;N0.0.1 -->
<g id="edge1" class="edge">
<title>N0.0.0&#45;&gt;N0.0.1</title>
<path fill="none" stroke="black" d="M50,-388.3C50,-361.69 50,-310.71 50,-278.92"/>
<polygon fill="black" stroke="black" points="53.5,-279.15 50,-269.15 46.5,-279.15 53.5,-279.15"/>
</g>
<!-- N0.0.2 -->
<g id="node3" class="node">
<title>N0.0.2</title>
<polygon fill="white" stroke="black" points="77,-196 23,-196 23,-160 77,-160 77,-196"/>
<text text-anchor="middle" x="50" y="-172.95" font-family="Times,serif" font-size="14.00">from</text>
</g>
<!-- N0.0.1&#45;&gt;N0.0.2 -->
<g id="edge2" class="edge">
<title>N0.0.1&#45;&gt;N0.0.2</title>
<path fill="none" stroke="black" d="M50,-231.7C50,-224.24 50,-215.32 50,-206.97"/>
<polygon fill="black" stroke="black" points="53.5,-207.1 50,-197.1 46.5,-207.1 53.5,-207.1"/>
</g>
<!-- N0.0.3 -->
<g id="node4" class="node">
<title>N0.0.3</title>
<polygon fill="#ffaaaa" stroke="black" points="77,-124 23,-124 23,-88 77,-88 77,-124"/>
<text text-anchor="middle" x="50" y="-100.95" font-family="Times,serif" font-size="14.00">N0.0.7</text>
</g>
<!-- N0.0.2&#45;&gt;N0.0.3 -->
<g id="edge3" class="edge">
<title>N0.0.2&#45;&gt;N0.0.3</title>
<path fill="none" stroke="black" d="M50,-159.7C50,-152.24 50,-143.32 50,-134.97"/>
<polygon fill="black" stroke="black" points="53.5,-135.1 50,-125.1 46.5,-135.1 53.5,-135.1"/>
</g>
<!-- N0.0.7.0 -->
<g id="node5" class="node">
<title>N0.0.7.0</title>
<polygon fill="white" stroke="black" points="273,-424.75 219,-424.75 219,-388.75 273,-388.75 273,-424.75"/>
<text text-anchor="middle" x="246" y="-401.7" font-family="Times,serif" font-size="14.00">select</text>
</g>
<!-- N0.0.7.1 -->
<g id="node6" class="node">
<title>N0.0.7.1</title>
<polygon fill="#ffaaaa" stroke="black" points="278,-268 214,-268 214,-232 278,-232 278,-268"/>
<text text-anchor="middle" x="246" y="-244.95" font-family="Times,serif" font-size="14.00">N0.0.7.4</text>
</g>
<!-- N0.0.7.0&#45;&gt;N0.0.7.1 -->
<g id="edge4" class="edge">
<title>N0.0.7.0&#45;&gt;N0.0.7.1</title>
<path fill="none" stroke="black" d="M246,-388.3C246,-361.69 246,-310.71 246,-278.92"/>
<polygon fill="black" stroke="black" points="249.5,-279.15 246,-269.15 242.5,-279.15 249.5,-279.15"/>
</g>
<!-- N0.0.7.2 -->
<g id="node7" class="node">
<title>N0.0.7.2</title>
<polygon fill="white" stroke="black" points="273,-196 219,-196 219,-160 273,-160 273,-196"/>
<text text-anchor="middle" x="246" y="-172.95" font-family="Times,serif" font-size="14.00">from</text>
</g>
<!-- N0.0.7.1&#45;&gt;N0.0.7.2 -->
<g id="edge5" class="edge">
<title>N0.0.7.1&#45;&gt;N0.0.7.2</title>
<path fill="none" stroke="black" d="M246,-231.7C246,-224.24 246,-215.32 246,-206.97"/>
<polygon fill="black" stroke="black" points="249.5,-207.1 246,-197.1 242.5,-207.1 249.5,-207.1"/>
</g>
<!-- N0.0.7.3 -->
<g id="node8" class="node">
<title>N0.0.7.3</title>
<polygon fill="white" stroke="black" points="281.38,-124 210.62,-124 210.62,-88 281.38,-88 281.38,-124"/>
<text text-anchor="middle" x="246" y="-100.95" font-family="Times,serif" font-size="14.00">N0.0.7.10</text>
</g>
<!-- N0.0.7.2&#45;&gt;N0.0.7.3 -->
<g id="edge6" class="edge">
<title>N0.0.7.2&#45;&gt;N0.0.7.3</title>
<path fill="none" stroke="black" d="M246,-159.7C246,-152.24 246,-143.32 246,-134.97"/>
<polygon fill="black" stroke="black" points="249.5,-135.1 246,-125.1 242.5,-135.1 249.5,-135.1"/>
</g>
<!-- N0.0.7.4 -->
<g id="node9" class="node">
<title>N0.0.7.4</title>
<polygon fill="white" stroke="black" points="383,-52 109,-52 109,-16 383,-16 383,-52"/>
<text text-anchor="middle" x="246" y="-28.95" font-family="Times,serif" font-size="14.00">where gam.acid=t.acid and gam.acid=lam.acid</text>
</g>
<!-- N0.0.7.3&#45;&gt;N0.0.7.4 -->
<g id="edge7" class="edge">
<title>N0.0.7.3&#45;&gt;N0.0.7.4</title>
<path fill="none" stroke="black" d="M246,-87.7C246,-80.24 246,-71.32 246,-62.97"/>
<polygon fill="black" stroke="black" points="249.5,-63.1 246,-53.1 242.5,-63.1 249.5,-63.1"/>
</g>
<!-- N0.0.7.10.0 -->
<g id="node10" class="node">
<title>N0.0.7.10.0</title>
<polygon fill="white" stroke="black" points="497.12,-424.75 412.88,-424.75 412.88,-388.75 497.12,-388.75 497.12,-424.75"/>
<text text-anchor="middle" x="455" y="-401.7" font-family="Times,serif" font-size="14.00">tbaadm.gam</text>
</g>
<!-- N0.0.7.10.1 -->
<g id="node11" class="node">
<title>N0.0.7.10.1</title>
<polygon fill="white" stroke="black" points="495.62,-268 414.38,-268 414.38,-232 495.62,-232 495.62,-268"/>
<text text-anchor="middle" x="455" y="-244.95" font-family="Times,serif" font-size="14.00">tbaadm.lam</text>
</g>
<!-- N0.0.7.10.0&#45;&gt;N0.0.7.10.1 -->
<g id="edge8" class="edge">
<title>N0.0.7.10.0&#45;&gt;N0.0.7.10.1</title>
<path fill="none" stroke="black" d="M455,-388.3C455,-361.69 455,-310.71 455,-278.92"/>
<polygon fill="black" stroke="black" points="458.5,-279.15 455,-269.15 451.5,-279.15 458.5,-279.15"/>
</g>
<!-- N0.0.7.10.2 -->
<g id="node12" class="node">
<title>N0.0.7.10.2</title>
<polygon fill="white" stroke="black" points="495.62,-196 414.38,-196 414.38,-160 495.62,-160 495.62,-196"/>
<text text-anchor="middle" x="455" y="-172.95" font-family="Times,serif" font-size="14.00">N0.0.7.10.7</text>
</g>
<!-- N0.0.7.10.1&#45;&gt;N0.0.7.10.2 -->
<g id="edge9" class="edge">
<title>N0.0.7.10.1&#45;&gt;N0.0.7.10.2</title>
<path fill="none" stroke="black" d="M455,-231.7C455,-224.24 455,-215.32 455,-206.97"/>
<polygon fill="black" stroke="black" points="458.5,-207.1 455,-197.1 451.5,-207.1 458.5,-207.1"/>
</g>
<!-- N0.0.7.10.7.0 -->
<g id="node13" class="node">
<title>N0.0.7.10.7.0</title>
<polygon fill="white" stroke="black" points="762.5,-509.5 527.5,-509.5 527.5,-304 762.5,-304 762.5,-509.5"/>
<text text-anchor="middle" x="645" y="-492.2" font-family="Times,serif" font-size="14.00">(</text>
<text text-anchor="middle" x="645" y="-475.7" font-family="Times,serif" font-size="14.00">select &#39;SM5494538&#39; acid,</text>
<text text-anchor="middle" x="645" y="-459.2" font-family="Times,serif" font-size="14.00">to_date(&#39;16&#45;Nov&#45;2018&#39;,</text>
<text text-anchor="middle" x="645" y="-442.7" font-family="Times,serif" font-size="14.00">&#39;DD&#45;MON&#45;YYYY&#39;) start_date,</text>
<text text-anchor="middle" x="645" y="-426.2" font-family="Times,serif" font-size="14.00">to_date(&#39;11&#45;May&#45;2019&#39;,</text>
<text text-anchor="middle" x="645" y="-393.7" font-family="Times,serif" font-size="14.00">...</text>
<text text-anchor="middle" x="645" y="-377.2" font-family="Times,serif" font-size="14.00">&#39;31&#45;Jul&#45;2020&#39;,</text>
<text text-anchor="middle" x="645" y="-360.7" font-family="Times,serif" font-size="14.00">&#39;DD&#45;MON&#45;YYYY&#39;) start_date,</text>
<text text-anchor="middle" x="645" y="-344.2" font-family="Times,serif" font-size="14.00">to_date(&#39;29&#45;Sep&#45;2020&#39;,</text>
<text text-anchor="middle" x="645" y="-327.7" font-family="Times,serif" font-size="14.00">&#39;DD&#45;MON&#45;YYYY&#39;) end_date from dual</text>
<text text-anchor="middle" x="645" y="-311.2" font-family="Times,serif" font-size="14.00">)</text>
</g>
<!-- N0.0.7.10.7.1 -->
<g id="node14" class="node">
<title>N0.0.7.10.7.1</title>
<polygon fill="white" stroke="black" points="672,-268 618,-268 618,-232 672,-232 672,-268"/>
<text text-anchor="middle" x="645" y="-244.95" font-family="Times,serif" font-size="14.00">t</text>
</g>
<!-- N0.0.7.10.7.0&#45;&gt;N0.0.7.10.7.1 -->
<g id="edge10" class="edge">
<title>N0.0.7.10.7.0&#45;&gt;N0.0.7.10.7.1</title>
<path fill="none" stroke="black" d="M645,-303.82C645,-295.02 645,-286.68 645,-279.35"/>
<polygon fill="black" stroke="black" points="648.5,-279.39 645,-269.39 641.5,-279.39 648.5,-279.39"/>
</g>
<!-- N0.0.7.4.0 -->
<g id="node15" class="node">
<title>N0.0.7.4.0</title>
<polygon fill="#ffaaaa" stroke="black" points="869.25,-424.75 794.75,-424.75 794.75,-388.75 869.25,-388.75 869.25,-424.75"/>
<text text-anchor="middle" x="832" y="-401.7" font-family="Times,serif" font-size="14.00">N0.0.7.4.4</text>
</g>
<!-- N0.0.7.4.1 -->
<g id="node16" class="node">
<title>N0.0.7.4.1</title>
<polygon fill="white" stroke="black" points="859,-268 805,-268 805,-232 859,-232 859,-268"/>
<text text-anchor="middle" x="832" y="-244.95" font-family="Times,serif" font-size="14.00">...</text>
</g>
<!-- N0.0.7.4.0&#45;&gt;N0.0.7.4.1 -->
<g id="edge11" class="edge">
<title>N0.0.7.4.0&#45;&gt;N0.0.7.4.1</title>
<path fill="none" stroke="black" d="M832,-388.3C832,-361.69 832,-310.71 832,-278.92"/>
<polygon fill="black" stroke="black" points="835.5,-279.15 832,-269.15 828.5,-279.15 835.5,-279.15"/>
</g>
<!-- N0.0.7.4.4.0 -->
<g id="node17" class="node">
<title>N0.0.7.4.4.0</title>
<polygon fill="white" stroke="black" points="978,-424.75 924,-424.75 924,-388.75 978,-388.75 978,-424.75"/>
<text text-anchor="middle" x="951" y="-401.7" font-family="Times,serif" font-size="14.00">gam</text>
</g>
<!-- N0.0.7.4.4.1 -->
<g id="node18" class="node">
<title>N0.0.7.4.4.1</title>
<polygon fill="white" stroke="black" points="978.12,-268 923.88,-268 923.88,-232 978.12,-232 978.12,-268"/>
<text text-anchor="middle" x="951" y="-244.95" font-family="Times,serif" font-size="14.00">foracid</text>
</g>
<!-- N0.0.7.4.4.0&#45;&gt;N0.0.7.4.4.1 -->
<g id="edge12" class="edge">
<title>N0.0.7.4.4.0&#45;&gt;N0.0.7.4.4.1</title>
<path fill="none" stroke="black" d="M951,-388.3C951,-361.69 951,-310.71 951,-278.92"/>
<polygon fill="black" stroke="black" points="954.5,-279.15 951,-269.15 947.5,-279.15 954.5,-279.15"/>
</g>
<!-- N0.0.7.4.4.2 -->
<g id="node19" class="node">
<title>N0.0.7.4.4.2</title>
<polygon fill="white" stroke="black" points="978,-196 924,-196 924,-160 978,-160 978,-196"/>
<text text-anchor="middle" x="951" y="-172.95" font-family="Times,serif" font-size="14.00">as</text>
</g>
<!-- N0.0.7.4.4.1&#45;&gt;N0.0.7.4.4.2 -->
<g id="edge13" class="edge">
<title>N0.0.7.4.4.1&#45;&gt;N0.0.7.4.4.2</title>
<path fill="none" stroke="black" d="M951,-231.7C951,-224.24 951,-215.32 951,-206.97"/>
<polygon fill="black" stroke="black" points="954.5,-207.1 951,-197.1 947.5,-207.1 954.5,-207.1"/>
</g>
<!-- N0.0.7.4.4.3 -->
<g id="node20" class="node">
<title>N0.0.7.4.4.3</title>
<polygon fill="#ffaaaa" stroke="black" points="993.5,-124 908.5,-124 908.5,-88 993.5,-88 993.5,-124"/>
<text text-anchor="middle" x="951" y="-100.95" font-family="Times,serif" font-size="14.00">N0.0.7.4.4.6</text>
</g>
<!-- N0.0.7.4.4.2&#45;&gt;N0.0.7.4.4.3 -->
<g id="edge14" class="edge">
<title>N0.0.7.4.4.2&#45;&gt;N0.0.7.4.4.3</title>
<path fill="none" stroke="black" d="M951,-159.7C951,-152.24 951,-143.32 951,-134.97"/>
<polygon fill="black" stroke="black" points="954.5,-135.1 951,-125.1 947.5,-135.1 954.5,-135.1"/>
</g>
<!-- N0.0.7.4.4.6.0 -->
<g id="node21" class="node">
<title>N0.0.7.4.4.6.0</title>
<polygon fill="#ffaaaa" stroke="black" points="1123.62,-424.75 1036.38,-424.75 1036.38,-388.75 1123.62,-388.75 1123.62,-424.75"/>
<text text-anchor="middle" x="1080" y="-401.7" font-family="Times,serif" font-size="14.00">&quot;FORACID&quot;</text>
</g>
</g>
</svg>
