<?xml version="1.0" encoding="UTF-8" standalone="no"?>
<!DOCTYPE svg PUBLIC "-//W3C//DTD SVG 1.1//EN"
 "http://www.w3.org/Graphics/SVG/1.1/DTD/svg11.dtd">
<!-- Generated by graphviz version 8.1.0 (20230707.0739)
 -->
<!-- Pages: 1 -->
<svg width="1303pt" height="580pt"
 viewBox="0.00 0.00 1303.00 579.50" xmlns="http://www.w3.org/2000/svg" xmlns:xlink="http://www.w3.org/1999/xlink">
<g id="graph0" class="graph" transform="scale(1 1) rotate(0) translate(4 575.5)">
<polygon fill="white" stroke="none" points="-4,4 -4,-575.5 1299,-575.5 1299,4 -4,4"/>
<g id="clust1" class="cluster">
<title>cluster_N0.0</title>
<polygon fill="none" stroke="black" points="8,-80 8,-478.75 93,-478.75 93,-80 8,-80"/>
<text text-anchor="middle" x="50.5" y="-461.45" font-family="Times,serif" font-size="14.00">Step 1: N0.0</text>
</g>
<g id="clust2" class="cluster">
<title>cluster_N0.0.7</title>
<polygon fill="none" stroke="black" points="101,-8 101,-478.75 391,-478.75 391,-8 101,-8"/>
<text text-anchor="middle" x="246" y="-461.45" font-family="Times,serif" font-size="14.00">Step 2: N0.0.7</text>
</g>
<g id="clust3" class="cluster">
<title>cluster_N0.0.7.10</title>
<polygon fill="none" stroke="black" points="399,-162.75 399,-478.75 511,-478.75 511,-162.75 399,-162.75"/>
<text text-anchor="middle" x="455" y="-461.45" font-family="Times,serif" font-size="14.00">Step 3: N0.0.7.10</text>
</g>
<g id="clust4" class="cluster">
<title>cluster_N0.0.7.10.7</title>
<polygon fill="none" stroke="black" points="519,-245.5 519,-563.5 771,-563.5 771,-245.5 519,-245.5"/>
<text text-anchor="middle" x="645" y="-546.2" font-family="Times,serif" font-size="14.00">Step 4: N0.0.7.10.7</text>
</g>
<g id="clust5" class="cluster">
<title>cluster_N0.0.7.4</title>
<polygon fill="none" stroke="black" points="779,-245.5 779,-478.75 885,-478.75 885,-245.5 779,-245.5"/>
<text text-anchor="middle" x="832" y="-461.45" font-family="Times,serif" font-size="14.00">Step 5: N0.0.7.4</text>
</g>
<g id="clust6" class="cluster">
<title>cluster_N0.0.7.4.52</title>
<polygon fill="none" stroke="black" points="893,-8 893,-478.75 1055,-478.75 1055,-8 893,-8"/>
<text text-anchor="middle" x="974" y="-461.45" font-family="Times,serif" font-size="14.00">Step 6: N0.0.7.4.52</text>
</g>
<g id="clust7" class="cluster">
<title>cluster_N0.0.7.4.52.8</title>
<polygon fill="none" stroke="black" points="1063,-402.25 1063,-478.75 1287,-478.75 1287,-402.25 1063,-402.25"/>
<text text-anchor="middle" x="1175" y="-461.45" font-family="Times,serif" font-size="14.00">Step 7: N0.0.7.4.52.8</text>
</g>
<!-- N0.0.0 -->
<g id="node1" class="node">
<title>N0.0.0</title>
<polygon fill="white" stroke="black" points="77,-446.25 23,-446.25 23,-410.25 77,-410.25 77,-446.25"/>
<text text-anchor="middle" x="50" y="-423.2" font-family="Times,serif" font-size="14.00">select</text>
</g>
<!-- N0.0.1 -->
<g id="node2" class="node">
<title>N0.0.1</title>
<polygon fill="white" stroke="black" points="77,-289.5 23,-289.5 23,-253.5 77,-253.5 77,-289.5"/>
<text text-anchor="middle" x="50" y="-266.45" font-family="Times,serif" font-size="14.00">*</text>
</g>
<!-- N0.0.0&#45;&gt;N0.0.1 -->
<g id="edge1" class="edge">
<title>N0.0.0&#45;&gt;N0.0.1</title>
<path fill="none" stroke="black" d="M50,-409.8C50,-383.19 50,-332.21 50,-300.42"/>
<polygon fill="black" stroke="black" points="53.5,-300.65 50,-290.65 46.5,-300.65 53.5,-300.65"/>
</g>
<!-- N0.0.2 -->
<g id="node3" class="node">
<title>N0.0.2</title>
<polygon fill="white" stroke="black" points="77,-206.75 23,-206.75 23,-170.75 77,-170.75 77,-206.75"/>
<text text-anchor="middle" x="50" y="-183.7" font-family="Times,serif" font-size="14.00">from</text>
</g>
<!-- N0.0.1&#45;&gt;N0.0.2 -->
<g id="edge2" class="edge">
<title>N0.0.1&#45;&gt;N0.0.2</title>
<path fill="none" stroke="black" d="M50,-253.38C50,-243.06 50,-229.67 50,-217.84"/>
<polygon fill="black" stroke="black" points="53.5,-218.13 50,-208.13 46.5,-218.13 53.5,-218.13"/>
</g>
<!-- N0.0.3 -->
<g id="node4" class="node">
<title>N0.0.3</title>
<polygon fill="#ffaaaa" stroke="black" points="77,-124 23,-124 23,-88 77,-88 77,-124"/>
<text text-anchor="middle" x="50" y="-100.95" font-family="Times,serif" font-size="14.00">N0.0.7</text>
</g>
<!-- N0.0.2&#45;&gt;N0.0.3 -->
<g id="edge3" class="edge">
<title>N0.0.2&#45;&gt;N0.0.3</title>
<path fill="none" stroke="black" d="M50,-170.63C50,-160.31 50,-146.92 50,-135.09"/>
<polygon fill="black" stroke="black" points="53.5,-135.38 50,-125.38 46.5,-135.38 53.5,-135.38"/>
</g>
<!-- N0.0.7.0 -->
<g id="node5" class="node">
<title>N0.0.7.0</title>
<polygon fill="white" stroke="black" points="273,-446.25 219,-446.25 219,-410.25 273,-410.25 273,-446.25"/>
<text text-anchor="middle" x="246" y="-423.2" font-family="Times,serif" font-size="14.00">select</text>
</g>
<!-- N0.0.7.1 -->
<g id="node6" class="node">
<title>N0.0.7.1</title>
<polygon fill="#ffaaaa" stroke="black" points="278,-289.5 214,-289.5 214,-253.5 278,-253.5 278,-289.5"/>
<text text-anchor="middle" x="246" y="-266.45" font-family="Times,serif" font-size="14.00">N0.0.7.4</text>
</g>
<!-- N0.0.7.0&#45;&gt;N0.0.7.1 -->
<g id="edge4" class="edge">
<title>N0.0.7.0&#45;&gt;N0.0.7.1</title>
<path fill="none" stroke="black" d="M246,-409.8C246,-383.19 246,-332.21 246,-300.42"/>
<polygon fill="black" stroke="black" points="249.5,-300.65 246,-290.65 242.5,-300.65 249.5,-300.65"/>
</g>
<!-- N0.0.7.2 -->
<g id="node7" class="node">
<title>N0.0.7.2</title>
<polygon fill="white" stroke="black" points="273,-206.75 219,-206.75 219,-170.75 273,-170.75 273,-206.75"/>
<text text-anchor="middle" x="246" y="-183.7" font-family="Times,serif" font-size="14.00">from</text>
</g>
<!-- N0.0.7.1&#45;&gt;N0.0.7.2 -->
<g id="edge5" class="edge">
<title>N0.0.7.1&#45;&gt;N0.0.7.2</title>
<path fill="none" stroke="black" d="M246,-253.38C246,-243.06 246,-229.67 246,-217.84"/>
<polygon fill="black" stroke="black" points="249.5,-218.13 246,-208.13 242.5,-218.13 249.5,-218.13"/>
</g>
<!-- N0.0.7.3 -->
<g id="node8" class="node">
<title>N0.0.7.3</title>
<polygon fill="white" stroke="black" points="281.38,-124 210.62,-124 210.62,-88 281.38,-88 281.38,-124"/>
<text text-anchor="middle" x="246" y="-100.95" font-family="Times,serif" font-size="14.00">N0.0.7.10</text>
</g>
<!-- N0.0.7.2&#45;&gt;N0.0.7.3 -->
<g id="edge6" class="edge">
<title>N0.0.7.2&#45;&gt;N0.0.7.3</title>
<path fill="none" stroke="black" d="M246,-170.63C246,-160.31 246,-146.92 246,-135.09"/>
<polygon fill="black" stroke="black" points="249.5,-135.38 246,-125.38 242.5,-135.38 249.5,-135.38"/>
</g>
<!-- N0.0.7.4 -->
<g id="node9" class="node">
<title>N0.0.7.4</title>
<polygon fill="white" stroke="black" points="383,-52 109,-52 109,-16 383,-16 383,-52"/>
<text text-anchor="middle" x="246" y="-28.95" font-family="Times,serif" font-size="14.00">where gam.acid=t.acid and gam.acid=lam.acid</text>
</g>
<!-- N0.0.7.3&#45;&gt;N0.0.7.4 -->
<g id="edge7" class="edge">
<title>N0.0.7.3&#45;&gt;N0.0.7.4</title>
<path fill="none" stroke="black" d="M246,-87.7C246,-80.24 246,-71.32 246,-62.97"/>
<polygon fill="black" stroke="black" points="249.5,-63.1 246,-53.1 242.5,-63.1 249.5,-63.1"/>
</g>
<!-- N0.0.7.10.0 -->
<g id="node10" class="node">
<title>N0.0.7.10.0</title>
<polygon fill="white" stroke="black" points="497.12,-446.25 412.88,-446.25 412.88,-410.25 497.12,-410.25 497.12,-446.25"/>
<text text-anchor="middle" x="455" y="-423.2" font-family="Times,serif" font-size="14.00">tbaadm.gam</text>
</g>
<!-- N0.0.7.10.1 -->
<g id="node11" class="node">
<title>N0.0.7.10.1</title>
<polygon fill="white" stroke="black" points="495.62,-289.5 414.38,-289.5 414.38,-253.5 495.62,-253.5 495.62,-289.5"/>
<text text-anchor="middle" x="455" y="-266.45" font-family="Times,serif" font-size="14.00">tbaadm.lam</text>
</g>
<!-- N0.0.7.10.0&#45;&gt;N0.0.7.10.1 -->
<g id="edge8" class="edge">
<title>N0.0.7.10.0&#45;&gt;N0.0.7.10.1</title>
<path fill="none" stroke="black" d="M455,-409.8C455,-383.19 455,-332.21 455,-300.42"/>
<polygon fill="black" stroke="black" points="458.5,-300.65 455,-290.65 451.5,-300.65 458.5,-300.65"/>
</g>
<!-- N0.0.7.10.2 -->
<g id="node12" class="node">
<title>N0.0.7.10.2</title>
<polygon fill="white" stroke="black" points="495.62,-206.75 414.38,-206.75 414.38,-170.75 495.62,-170.75 495.62,-206.75"/>
<text text-anchor="middle" x="455" y="-183.7" font-family="Times,serif" font-size="14.00">N0.0.7.10.7</text>
</g>
<!-- N0.0.7.10.1&#45;&gt;N0.0.7.10.2 -->
<g id="edge9" class="edge">
<title>N0.0.7.10.1&#45;&gt;N0.0.7.10.2</title>
<path fill="none" stroke="black" d="M455,-253.38C455,-243.06 455,-229.67 455,-217.84"/>
<polygon fill="black" stroke="black" points="458.5,-218.13 455,-208.13 451.5,-218.13 458.5,-218.13"/>
</g>
<!-- N0.0.7.10.7.0 -->
<g id="node13" class="node">
<title>N0.0.7.10.7.0</title>
<polygon fill="white" stroke="black" points="762.5,-531 527.5,-531 527.5,-325.5 762.5,-325.5 762.5,-531"/>
<text text-anchor="middle" x="645" y="-513.7" font-family="Times,serif" font-size="14.00">(</text>
<text text-anchor="middle" x="645" y="-497.2" font-family="Times,serif" font-size="14.00">select &#39;SM5494538&#39; acid,</text>
<text text-anchor="middle" x="645" y="-480.7" font-family="Times,serif" font-size="14.00">to_date(&#39;16&#45;Nov&#45;2018&#39;,</text>
<text text-anchor="middle" x="645" y="-464.2" font-family="Times,serif" font-size="14.00">&#39;DD&#45;MON&#45;YYYY&#39;) start_date,</text>
<text text-anchor="middle" x="645" y="-447.7" font-family="Times,serif" font-size="14.00">to_date(&#39;11&#45;May&#45;2019&#39;,</text>
<text text-anchor="middle" x="645" y="-415.2" font-family="Times,serif" font-size="14.00">...</text>
<text text-anchor="middle" x="645" y="-398.7" font-family="Times,serif" font-size="14.00">&#39;31&#45;Jul&#45;2020&#39;,</text>
<text text-anchor="middle" x="645" y="-382.2" font-family="Times,serif" font-size="14.00">&#39;DD&#45;MON&#45;YYYY&#39;) start_date,</text>
<text text-anchor="middle" x="645" y="-365.7" font-family="Times,serif" font-size="14.00">to_date(&#39;29&#45;Sep&#45;2020&#39;,</text>
<text text-anchor="middle" x="645" y="-349.2" font-family="Times,serif" font-size="14.00">&#39;DD&#45;MON&#45;YYYY&#39;) end_date from dual</text>
<text text-anchor="middle" x="645" y="-332.7" font-family="Times,serif" font-size="14.00">)</text>
</g>
<!-- N0.0.7.10.7.1 -->
<g id="node14" class="node">
<title>N0.0.7.10.7.1</title>
<polygon fill="white" stroke="black" points="672,-289.5 618,-289.5 618,-253.5 672,-253.5 672,-289.5"/>
<text text-anchor="middle" x="645" y="-266.45" font-family="Times,serif" font-size="14.00">t</text>
</g>
<!-- N0.0.7.10.7.0&#45;&gt;N0.0.7.10.7.1 -->
<g id="edge10" class="edge">
<title>N0.0.7.10.7.0&#45;&gt;N0.0.7.10.7.1</title>
<path fill="none" stroke="black" d="M645,-325.32C645,-316.52 645,-308.18 645,-300.85"/>
<polygon fill="black" stroke="black" points="648.5,-300.89 645,-290.89 641.5,-300.89 648.5,-300.89"/>
</g>
<!-- N0.0.7.4.0 -->
<g id="node15" class="node">
<title>N0.0.7.4.0</title>
<polygon fill="#ffaaaa" stroke="black" points="872.62,-446.25 791.38,-446.25 791.38,-410.25 872.62,-410.25 872.62,-446.25"/>
<text text-anchor="middle" x="832" y="-423.2" font-family="Times,serif" font-size="14.00">N0.0.7.4.52</text>
</g>
<!-- N0.0.7.4.1 -->
<g id="node16" class="node">
<title>N0.0.7.4.1</title>
<polygon fill="white" stroke="black" points="859,-289.5 805,-289.5 805,-253.5 859,-253.5 859,-289.5"/>
<text text-anchor="middle" x="832" y="-266.45" font-family="Times,serif" font-size="14.00">...</text>
</g>
<!-- N0.0.7.4.0&#45;&gt;N0.0.7.4.1 -->
<g id="edge11" class="edge">
<title>N0.0.7.4.0&#45;&gt;N0.0.7.4.1</title>
<path fill="none" stroke="black" d="M832,-409.8C832,-383.19 832,-332.21 832,-300.42"/>
<polygon fill="black" stroke="black" points="835.5,-300.65 832,-290.65 828.5,-300.65 835.5,-300.65"/>
</g>
<!-- N0.0.7.4.52.0 -->
<g id="node17" class="node">
<title>N0.0.7.4.52.0</title>
<polygon fill="white" stroke="black" points="1001.12,-446.25 946.88,-446.25 946.88,-410.25 1001.12,-410.25 1001.12,-446.25"/>
<text text-anchor="middle" x="974" y="-423.2" font-family="Times,serif" font-size="14.00">dfscust</text>
</g>
<!-- N0.0.7.4.52.1 -->
<g id="node18" class="node">
<title>N0.0.7.4.52.1</title>
<polygon fill="white" stroke="black" points="1013.88,-289.5 934.12,-289.5 934.12,-253.5 1013.88,-253.5 1013.88,-289.5"/>
<text text-anchor="middle" x="974" y="-266.45" font-family="Times,serif" font-size="14.00">dfs_utilities</text>
</g>
<!-- N0.0.7.4.52.0&#45;&gt;N0.0.7.4.52.1 -->
<g id="edge12" class="edge">
<title>N0.0.7.4.52.0&#45;&gt;N0.0.7.4.52.1</title>
<path fill="none" stroke="black" d="M974,-409.8C974,-383.19 974,-332.21 974,-300.42"/>
<polygon fill="black" stroke="black" points="977.5,-300.65 974,-290.65 970.5,-300.65 977.5,-300.65"/>
</g>
<!-- N0.0.7.4.52.2 -->
<g id="node19" class="node">
<title>N0.0.7.4.52.2</title>
<polygon fill="white" stroke="black" points="1046.5,-217.5 901.5,-217.5 901.5,-160 1046.5,-160 1046.5,-217.5"/>
<text text-anchor="middle" x="974" y="-200.2" font-family="Times,serif" font-size="14.00">int_amt_calc(gam.acid,</text>
<text text-anchor="middle" x="974" y="-183.7" font-family="Times,serif" font-size="14.00">t.start_date,</text>
<text text-anchor="middle" x="974" y="-167.2" font-family="Times,serif" font-size="14.00">t.end_date)</text>
</g>
<!-- N0.0.7.4.52.1&#45;&gt;N0.0.7.4.52.2 -->
<g id="edge13" class="edge">
<title>N0.0.7.4.52.1&#45;&gt;N0.0.7.4.52.2</title>
<path fill="none" stroke="black" d="M974,-253.38C974,-246.15 974,-237.41 974,-228.76"/>
<polygon fill="black" stroke="black" points="977.5,-228.97 974,-218.97 970.5,-228.97 977.5,-228.97"/>
</g>
<!-- N0.0.7.4.52.3 -->
<g id="node20" class="node">
<title>N0.0.7.4.52.3</title>
<polygon fill="white" stroke="black" points="1001,-124 947,-124 947,-88 1001,-88 1001,-124"/>
<text text-anchor="middle" x="974" y="-100.95" font-family="Times,serif" font-size="14.00">as</text>
</g>
<!-- N0.0.7.4.52.2&#45;&gt;N0.0.7.4.52.3 -->
<g id="edge14" class="edge">
<title>N0.0.7.4.52.2&#45;&gt;N0.0.7.4.52.3</title>
<path fill="none" stroke="black" d="M974,-159.51C974,-151.56 974,-142.93 974,-135"/>
<polygon fill="black" stroke="black" points="977.5,-135.04 974,-125.04 970.5,-135.04 977.5,-135.04"/>
</g>
<!-- N0.0.7.4.52.4 -->
<g id="node21" class="node">
<title>N0.0.7.4.52.4</title>
<polygon fill="#ffaaaa" stroke="black" points="1019.88,-52 928.12,-52 928.12,-16 1019.88,-16 1019.88,-52"/>
<text text-anchor="middle" x="974" y="-28.95" font-family="Times,serif" font-size="14.00">N0.0.7.4.52.8</text>
</g>
<!-- N0.0.7.4.52.3&#45;&gt;N0.0.7.4.52.4 -->
<g id="edge15" class="edge">
<title>N0.0.7.4.52.3&#45;&gt;N0.0.7.4.52.4</title>
<path fill="none" stroke="black" d="M974,-87.7C974,-80.24 974,-71.32 974,-62.97"/>
<polygon fill="black" stroke="black" points="977.5,-63.1 974,-53.1 970.5,-63.1 977.5,-63.1"/>
</g>
<!-- N0.0.7.4.52.8.0 -->
<g id="node22" class="node">
<title>N0.0.7.4.52.8.0</title>
<polygon fill="#ffaaaa" stroke="black" points="1279,-446.25 1071,-446.25 1071,-410.25 1279,-410.25 1279,-446.25"/>
<text text-anchor="middle" x="1175" y="-423.2" font-family="Times,serif" font-size="14.00">&quot;Interest_Accrued_During_Period&quot;</text>
</g>
</g>
</svg>
