<?xml version="1.0" encoding="UTF-8" standalone="no"?>
<!DOCTYPE svg PUBLIC "-//W3C//DTD SVG 1.1//EN"
 "http://www.w3.org/Graphics/SVG/1.1/DTD/svg11.dtd">
<!-- Generated by graphviz version 8.1.0 (20230707.0739)
 -->
<!-- Pages: 1 -->
<svg width="1209pt" height="723pt"
 viewBox="0.00 0.00 1209.00 723.00" xmlns="http://www.w3.org/2000/svg" xmlns:xlink="http://www.w3.org/1999/xlink">
<g id="graph0" class="graph" transform="scale(1 1) rotate(0) translate(4 719)">
<polygon fill="white" stroke="none" points="-4,4 -4,-719 1205,-719 1205,4 -4,4"/>
<g id="clust1" class="cluster">
<title>cluster_N0.0</title>
<polygon fill="none" stroke="black" points="8,-80 8,-539.75 93,-539.75 93,-80 8,-80"/>
<text text-anchor="middle" x="50.5" y="-522.45" font-family="Times,serif" font-size="14.00">Step 1: N0.0</text>
</g>
<g id="clust2" class="cluster">
<title>cluster_N0.0.7</title>
<polygon fill="none" stroke="black" points="101,-8 101,-539.75 391,-539.75 391,-8 101,-8"/>
<text text-anchor="middle" x="246" y="-522.45" font-family="Times,serif" font-size="14.00">Step 2: N0.0.7</text>
</g>
<g id="clust3" class="cluster">
<title>cluster_N0.0.7.10</title>
<polygon fill="none" stroke="black" points="399,-152 399,-539.75 511,-539.75 511,-152 399,-152"/>
<text text-anchor="middle" x="455" y="-522.45" font-family="Times,serif" font-size="14.00">Step 3: N0.0.7.10</text>
</g>
<g id="clust4" class="cluster">
<title>cluster_N0.0.7.10.7</title>
<polygon fill="none" stroke="black" points="519,-224 519,-624.5 771,-624.5 771,-224 519,-224"/>
<text text-anchor="middle" x="645" y="-607.2" font-family="Times,serif" font-size="14.00">Step 4: N0.0.7.10.7</text>
</g>
<g id="clust5" class="cluster">
<title>cluster_N0.0.7.4</title>
<polygon fill="none" stroke="black" points="779,-224 779,-539.75 885,-539.75 885,-224 779,-224"/>
<text text-anchor="middle" x="832" y="-522.45" font-family="Times,serif" font-size="14.00">Step 5: N0.0.7.4</text>
</g>
<g id="clust6" class="cluster">
<title>cluster_N0.0.7.4.20</title>
<polygon fill="none" stroke="black" points="893,-152 893,-707 1039,-707 1039,-152 893,-152"/>
<text text-anchor="middle" x="966" y="-689.7" font-family="Times,serif" font-size="14.00">Step 6: N0.0.7.4.20</text>
</g>
<g id="clust7" class="cluster">
<title>cluster_N0.0.7.4.20.4</title>
<polygon fill="none" stroke="black" points="1047,-463.25 1047,-539.75 1193,-539.75 1193,-463.25 1047,-463.25"/>
<text text-anchor="middle" x="1120" y="-522.45" font-family="Times,serif" font-size="14.00">Step 7: N0.0.7.4.20.4</text>
</g>
<!-- N0.0.0 -->
<g id="node1" class="node">
<title>N0.0.0</title>
<polygon fill="white" stroke="black" points="77,-507.25 23,-507.25 23,-471.25 77,-471.25 77,-507.25"/>
<text text-anchor="middle" x="50" y="-484.2" font-family="Times,serif" font-size="14.00">select</text>
</g>
<!-- N0.0.1 -->
<g id="node2" class="node">
<title>N0.0.1</title>
<polygon fill="white" stroke="black" points="77,-268 23,-268 23,-232 77,-232 77,-268"/>
<text text-anchor="middle" x="50" y="-244.95" font-family="Times,serif" font-size="14.00">*</text>
</g>
<!-- N0.0.0&#45;&gt;N0.0.1 -->
<g id="edge1" class="edge">
<title>N0.0.0&#45;&gt;N0.0.1</title>
<path fill="none" stroke="black" d="M50,-470.8C50,-430.19 50,-328.99 50,-279.36"/>
<polygon fill="black" stroke="black" points="53.5,-279.47 50,-269.47 46.5,-279.47 53.5,-279.47"/>
</g>
<!-- N0.0.2 -->
<g id="node3" class="node">
<title>N0.0.2</title>
<polygon fill="white" stroke="black" points="77,-196 23,-196 23,-160 77,-160 77,-196"/>
<text text-anchor="middle" x="50" y="-172.95" font-family="Times,serif" font-size="14.00">from</text>
</g>
<!-- N0.0.1&#45;&gt;N0.0.2 -->
<g id="edge2" class="edge">
<title>N0.0.1&#45;&gt;N0.0.2</title>
<path fill="none" stroke="black" d="M50,-231.7C50,-224.24 50,-215.32 50,-206.97"/>
<polygon fill="black" stroke="black" points="53.5,-207.1 50,-197.1 46.5,-207.1 53.5,-207.1"/>
</g>
<!-- N0.0.3 -->
<g id="node4" class="node">
<title>N0.0.3</title>
<polygon fill="#ffaaaa" stroke="black" points="77,-124 23,-124 23,-88 77,-88 77,-124"/>
<text text-anchor="middle" x="50" y="-100.95" font-family="Times,serif" font-size="14.00">N0.0.7</text>
</g>
<!-- N0.0.2&#45;&gt;N0.0.3 -->
<g id="edge3" class="edge">
<title>N0.0.2&#45;&gt;N0.0.3</title>
<path fill="none" stroke="black" d="M50,-159.7C50,-152.24 50,-143.32 50,-134.97"/>
<polygon fill="black" stroke="black" points="53.5,-135.1 50,-125.1 46.5,-135.1 53.5,-135.1"/>
</g>
<!-- N0.0.7.0 -->
<g id="node5" class="node">
<title>N0.0.7.0</title>
<polygon fill="white" stroke="black" points="273,-507.25 219,-507.25 219,-471.25 273,-471.25 273,-507.25"/>
<text text-anchor="middle" x="246" y="-484.2" font-family="Times,serif" font-size="14.00">select</text>
</g>
<!-- N0.0.7.1 -->
<g id="node6" class="node">
<title>N0.0.7.1</title>
<polygon fill="#ffaaaa" stroke="black" points="278,-268 214,-268 214,-232 278,-232 278,-268"/>
<text text-anchor="middle" x="246" y="-244.95" font-family="Times,serif" font-size="14.00">N0.0.7.4</text>
</g>
<!-- N0.0.7.0&#45;&gt;N0.0.7.1 -->
<g id="edge4" class="edge">
<title>N0.0.7.0&#45;&gt;N0.0.7.1</title>
<path fill="none" stroke="black" d="M246,-470.8C246,-430.19 246,-328.99 246,-279.36"/>
<polygon fill="black" stroke="black" points="249.5,-279.47 246,-269.47 242.5,-279.47 249.5,-279.47"/>
</g>
<!-- N0.0.7.2 -->
<g id="node7" class="node">
<title>N0.0.7.2</title>
<polygon fill="white" stroke="black" points="273,-196 219,-196 219,-160 273,-160 273,-196"/>
<text text-anchor="middle" x="246" y="-172.95" font-family="Times,serif" font-size="14.00">from</text>
</g>
<!-- N0.0.7.1&#45;&gt;N0.0.7.2 -->
<g id="edge5" class="edge">
<title>N0.0.7.1&#45;&gt;N0.0.7.2</title>
<path fill="none" stroke="black" d="M246,-231.7C246,-224.24 246,-215.32 246,-206.97"/>
<polygon fill="black" stroke="black" points="249.5,-207.1 246,-197.1 242.5,-207.1 249.5,-207.1"/>
</g>
<!-- N0.0.7.3 -->
<g id="node8" class="node">
<title>N0.0.7.3</title>
<polygon fill="white" stroke="black" points="281.38,-124 210.62,-124 210.62,-88 281.38,-88 281.38,-124"/>
<text text-anchor="middle" x="246" y="-100.95" font-family="Times,serif" font-size="14.00">N0.0.7.10</text>
</g>
<!-- N0.0.7.2&#45;&gt;N0.0.7.3 -->
<g id="edge6" class="edge">
<title>N0.0.7.2&#45;&gt;N0.0.7.3</title>
<path fill="none" stroke="black" d="M246,-159.7C246,-152.24 246,-143.32 246,-134.97"/>
<polygon fill="black" stroke="black" points="249.5,-135.1 246,-125.1 242.5,-135.1 249.5,-135.1"/>
</g>
<!-- N0.0.7.4 -->
<g id="node9" class="node">
<title>N0.0.7.4</title>
<polygon fill="white" stroke="black" points="383,-52 109,-52 109,-16 383,-16 383,-52"/>
<text text-anchor="middle" x="246" y="-28.95" font-family="Times,serif" font-size="14.00">where gam.acid=t.acid and gam.acid=lam.acid</text>
</g>
<!-- N0.0.7.3&#45;&gt;N0.0.7.4 -->
<g id="edge7" class="edge">
<title>N0.0.7.3&#45;&gt;N0.0.7.4</title>
<path fill="none" stroke="black" d="M246,-87.7C246,-80.24 246,-71.32 246,-62.97"/>
<polygon fill="black" stroke="black" points="249.5,-63.1 246,-53.1 242.5,-63.1 249.5,-63.1"/>
</g>
<!-- N0.0.7.10.0 -->
<g id="node10" class="node">
<title>N0.0.7.10.0</title>
<polygon fill="white" stroke="black" points="497.12,-507.25 412.88,-507.25 412.88,-471.25 497.12,-471.25 497.12,-507.25"/>
<text text-anchor="middle" x="455" y="-484.2" font-family="Times,serif" font-size="14.00">tbaadm.gam</text>
</g>
<!-- N0.0.7.10.1 -->
<g id="node11" class="node">
<title>N0.0.7.10.1</title>
<polygon fill="white" stroke="black" points="495.62,-268 414.38,-268 414.38,-232 495.62,-232 495.62,-268"/>
<text text-anchor="middle" x="455" y="-244.95" font-family="Times,serif" font-size="14.00">tbaadm.lam</text>
</g>
<!-- N0.0.7.10.0&#45;&gt;N0.0.7.10.1 -->
<g id="edge8" class="edge">
<title>N0.0.7.10.0&#45;&gt;N0.0.7.10.1</title>
<path fill="none" stroke="black" d="M455,-470.8C455,-430.19 455,-328.99 455,-279.36"/>
<polygon fill="black" stroke="black" points="458.5,-279.47 455,-269.47 451.5,-279.47 458.5,-279.47"/>
</g>
<!-- N0.0.7.10.2 -->
<g id="node12" class="node">
<title>N0.0.7.10.2</title>
<polygon fill="white" stroke="black" points="495.62,-196 414.38,-196 414.38,-160 495.62,-160 495.62,-196"/>
<text text-anchor="middle" x="455" y="-172.95" font-family="Times,serif" font-size="14.00">N0.0.7.10.7</text>
</g>
<!-- N0.0.7.10.1&#45;&gt;N0.0.7.10.2 -->
<g id="edge9" class="edge">
<title>N0.0.7.10.1&#45;&gt;N0.0.7.10.2</title>
<path fill="none" stroke="black" d="M455,-231.7C455,-224.24 455,-215.32 455,-206.97"/>
<polygon fill="black" stroke="black" points="458.5,-207.1 455,-197.1 451.5,-207.1 458.5,-207.1"/>
</g>
<!-- N0.0.7.10.7.0 -->
<g id="node13" class="node">
<title>N0.0.7.10.7.0</title>
<polygon fill="white" stroke="black" points="762.5,-592 527.5,-592 527.5,-386.5 762.5,-386.5 762.5,-592"/>
<text text-anchor="middle" x="645" y="-574.7" font-family="Times,serif" font-size="14.00">(</text>
<text text-anchor="middle" x="645" y="-558.2" font-family="Times,serif" font-size="14.00">select &#39;SM5494538&#39; acid,</text>
<text text-anchor="middle" x="645" y="-541.7" font-family="Times,serif" font-size="14.00">to_date(&#39;16&#45;Nov&#45;2018&#39;,</text>
<text text-anchor="middle" x="645" y="-525.2" font-family="Times,serif" font-size="14.00">&#39;DD&#45;MON&#45;YYYY&#39;) start_date,</text>
<text text-anchor="middle" x="645" y="-508.7" font-family="Times,serif" font-size="14.00">to_date(&#39;11&#45;May&#45;2019&#39;,</text>
<text text-anchor="middle" x="645" y="-476.2" font-family="Times,serif" font-size="14.00">...</text>
<text text-anchor="middle" x="645" y="-459.7" font-family="Times,serif" font-size="14.00">&#39;31&#45;Jul&#45;2020&#39;,</text>
<text text-anchor="middle" x="645" y="-443.2" font-family="Times,serif" font-size="14.00">&#39;DD&#45;MON&#45;YYYY&#39;) start_date,</text>
<text text-anchor="middle" x="645" y="-426.7" font-family="Times,serif" font-size="14.00">to_date(&#39;29&#45;Sep&#45;2020&#39;,</text>
<text text-anchor="middle" x="645" y="-410.2" font-family="Times,serif" font-size="14.00">&#39;DD&#45;MON&#45;YYYY&#39;) end_date from dual</text>
<text text-anchor="middle" x="645" y="-393.7" font-family="Times,serif" font-size="14.00">)</text>
</g>
<!-- N0.0.7.10.7.1 -->
<g id="node14" class="node">
<title>N0.0.7.10.7.1</title>
<polygon fill="white" stroke="black" points="672,-268 618,-268 618,-232 672,-232 672,-268"/>
<text text-anchor="middle" x="645" y="-244.95" font-family="Times,serif" font-size="14.00">t</text>
</g>
<!-- N0.0.7.10.7.0&#45;&gt;N0.0.7.10.7.1 -->
<g id="edge10" class="edge">
<title>N0.0.7.10.7.0&#45;&gt;N0.0.7.10.7.1</title>
<path fill="none" stroke="black" d="M645,-386.26C645,-347.09 645,-305.46 645,-278.89"/>
<polygon fill="black" stroke="black" points="648.5,-279.15 645,-269.15 641.5,-279.15 648.5,-279.15"/>
</g>
<!-- N0.0.7.4.0 -->
<g id="node15" class="node">
<title>N0.0.7.4.0</title>
<polygon fill="#ffaaaa" stroke="black" points="872.62,-507.25 791.38,-507.25 791.38,-471.25 872.62,-471.25 872.62,-507.25"/>
<text text-anchor="middle" x="832" y="-484.2" font-family="Times,serif" font-size="14.00">N0.0.7.4.20</text>
</g>
<!-- N0.0.7.4.1 -->
<g id="node16" class="node">
<title>N0.0.7.4.1</title>
<polygon fill="white" stroke="black" points="859,-268 805,-268 805,-232 859,-232 859,-268"/>
<text text-anchor="middle" x="832" y="-244.95" font-family="Times,serif" font-size="14.00">...</text>
</g>
<!-- N0.0.7.4.0&#45;&gt;N0.0.7.4.1 -->
<g id="edge11" class="edge">
<title>N0.0.7.4.0&#45;&gt;N0.0.7.4.1</title>
<path fill="none" stroke="black" d="M832,-470.8C832,-430.19 832,-328.99 832,-279.36"/>
<polygon fill="black" stroke="black" points="835.5,-279.47 832,-269.47 828.5,-279.47 835.5,-279.47"/>
</g>
<!-- N0.0.7.4.20.0 -->
<g id="node17" class="node">
<title>N0.0.7.4.20.0</title>
<polygon fill="white" stroke="black" points="1031.38,-674.5 900.62,-674.5 900.62,-304 1031.38,-304 1031.38,-674.5"/>
<text text-anchor="middle" x="966" y="-657.2" font-family="Times,serif" font-size="14.00">Decode(Loan_status,</text>
<text text-anchor="middle" x="966" y="-640.7" font-family="Times,serif" font-size="14.00">&#39;S&#39;,</text>
<text text-anchor="middle" x="966" y="-624.2" font-family="Times,serif" font-size="14.00">&#39;In School&#39;,</text>
<text text-anchor="middle" x="966" y="-607.7" font-family="Times,serif" font-size="14.00">&#39;H&#39;,</text>
<text text-anchor="middle" x="966" y="-591.2" font-family="Times,serif" font-size="14.00">&#39;Holiday Period&#39;,</text>
<text text-anchor="middle" x="966" y="-574.7" font-family="Times,serif" font-size="14.00">&#39;G&#39;,</text>
<text text-anchor="middle" x="966" y="-558.2" font-family="Times,serif" font-size="14.00">&#39;Grace&#39;,</text>
<text text-anchor="middle" x="966" y="-541.7" font-family="Times,serif" font-size="14.00">&#39;R&#39;,</text>
<text text-anchor="middle" x="966" y="-525.2" font-family="Times,serif" font-size="14.00">&#39;Repayment&#39;,</text>
<text text-anchor="middle" x="966" y="-508.7" font-family="Times,serif" font-size="14.00">&#39;P&#39;,</text>
<text text-anchor="middle" x="966" y="-492.2" font-family="Times,serif" font-size="14.00">&#39;P</text>
<text text-anchor="middle" x="966" y="-475.7" font-family="Times,serif" font-size="14.00">...</text>
<text text-anchor="middle" x="966" y="-443.2" font-family="Times,serif" font-size="14.00">&#39;Restructure&#39;,</text>
<text text-anchor="middle" x="966" y="-426.7" font-family="Times,serif" font-size="14.00">&#39;I&#39;,</text>
<text text-anchor="middle" x="966" y="-410.2" font-family="Times,serif" font-size="14.00">&#39;Disaster Relief&#39;,</text>
<text text-anchor="middle" x="966" y="-393.7" font-family="Times,serif" font-size="14.00">&#39;Q&#39;,</text>
<text text-anchor="middle" x="966" y="-377.2" font-family="Times,serif" font-size="14.00">&#39;Settlement Pending&#39;,</text>
<text text-anchor="middle" x="966" y="-360.7" font-family="Times,serif" font-size="14.00">&#39;K&#39;,</text>
<text text-anchor="middle" x="966" y="-344.2" font-family="Times,serif" font-size="14.00">&#39;Write Off&#39;,</text>
<text text-anchor="middle" x="966" y="-327.7" font-family="Times,serif" font-size="14.00">&#39;Z&#39;,</text>
<text text-anchor="middle" x="966" y="-311.2" font-family="Times,serif" font-size="14.00">&#39;Settled&#39;)</text>
</g>
<!-- N0.0.7.4.20.1 -->
<g id="node18" class="node">
<title>N0.0.7.4.20.1</title>
<polygon fill="white" stroke="black" points="993,-268 939,-268 939,-232 993,-232 993,-268"/>
<text text-anchor="middle" x="966" y="-244.95" font-family="Times,serif" font-size="14.00">as</text>
</g>
<!-- N0.0.7.4.20.0&#45;&gt;N0.0.7.4.20.1 -->
<g id="edge12" class="edge">
<title>N0.0.7.4.20.0&#45;&gt;N0.0.7.4.20.1</title>
<path fill="none" stroke="black" d="M966,-303.65C966,-294.5 966,-286.11 966,-278.85"/>
<polygon fill="black" stroke="black" points="969.5,-279.1 966,-269.1 962.5,-279.1 969.5,-279.1"/>
</g>
<!-- N0.0.7.4.20.2 -->
<g id="node19" class="node">
<title>N0.0.7.4.20.2</title>
<polygon fill="#ffaaaa" stroke="black" points="1011.88,-196 920.12,-196 920.12,-160 1011.88,-160 1011.88,-196"/>
<text text-anchor="middle" x="966" y="-172.95" font-family="Times,serif" font-size="14.00">N0.0.7.4.20.4</text>
</g>
<!-- N0.0.7.4.20.1&#45;&gt;N0.0.7.4.20.2 -->
<g id="edge13" class="edge">
<title>N0.0.7.4.20.1&#45;&gt;N0.0.7.4.20.2</title>
<path fill="none" stroke="black" d="M966,-231.7C966,-224.24 966,-215.32 966,-206.97"/>
<polygon fill="black" stroke="black" points="969.5,-207.1 966,-197.1 962.5,-207.1 969.5,-207.1"/>
</g>
<!-- N0.0.7.4.20.4.0 -->
<g id="node20" class="node">
<title>N0.0.7.4.20.4.0</title>
<polygon fill="#ffaaaa" stroke="black" points="1185.38,-507.25 1054.62,-507.25 1054.62,-471.25 1185.38,-471.25 1185.38,-507.25"/>
<text text-anchor="middle" x="1120" y="-484.2" font-family="Times,serif" font-size="14.00">&quot;Current_Ln_Status&quot;</text>
</g>
</g>
</svg>
